<svg width="80" height="21" viewBox="0 0 80 21" fill="none" xmlns="http://www.w3.org/2000/svg">
<title>AMGEN</title>
<path d="M16.956 0.795V19.604H21.491V9.419C23.473 12.431 24.425 16.021 24.503 19.604H28.769C28.837 16.049 29.571 12.309 31.749 9.419V19.605H36.286V13.043C36.806 15.047 37.764 16.811 39.366 18.172C41.18 19.718 43.487 20.328 45.833 20.328C48.929 20.328 51.791 19.09 53.729 16.654C54.748 15.372 55.415 14.017 55.745 12.421V19.604H65.438V15.08H60.376V12.42H65.438V7.93H60.376V5.32H65.438V0.795H55.745V7.93H45.408V12.42H50.985C50.677 13.165 50.329 13.881 49.753 14.458C48.717 15.483 47.345 15.925 45.907 15.925C42.496 15.925 40.267 13.462 40.267 10.102C40.267 6.86 42.726 4.48 45.933 4.48C47.961 4.48 49.725 5.247 50.553 7.162H55.403C54.653 2.884 50.442 0 46.237 0C43.912 0 41.622 0.627001 39.774 2.083C38.044 3.438 36.991 5.292 36.286 7.335V0.795C31.24 1.232 28.256 5.908 26.672 10.242C25.73 7.912 24.644 5.633 22.902 3.785C21.279 2.061 19.336 0.952 16.956 0.795Z" fill="#1A1919"/>
<path d="M0 19.604H4.537L4.682 19.05L5.041 17.6L5.416 16.278L5.69 15.444L5.819 15.041H11.63V19.604H16.2V0.716999C16.1301 0.716999 16.0602 0.715502 15.9903 0.714005C15.9204 0.712507 15.8499 0.710999 15.78 0.710999C9.699 0.710999 5.734 4.832 3.354 10.097C2.413 12.162 1.557 14.319 0.913 16.497L0 19.604ZM11.63 10.555H7.879C8.809 8.663 9.643 7.184 11.63 6.261V10.555Z" fill="#1A1919"/>
<path d="M74.923 0.795H79.459V19.605H75.366C74.761 16.491 73.288 12.532 70.729 10.555V19.605H66.188V0.785C68.248 1.204 70.942 3.321 72.442 4.76C73.406 5.69 74.347 6.709 74.923 7.93V0.795Z" fill="#1A1919"/>
</svg>
