<?xml version="1.0" encoding="UTF-8"?>
<svg width="84px" height="54px" viewBox="0 0 84 54" version="1.1" xmlns="http://www.w3.org/2000/svg" xmlns:xlink="http://www.w3.org/1999/xlink">
    <!-- Generator: Sketch 48 (47235) - http://www.bohemiancoding.com/sketch -->
    <title>logos/amgen</title>
    <desc>Created with Sketch.</desc>
    <defs></defs>
    <g id="Symbols" stroke="none" stroke-width="1" fill="none" fill-rule="evenodd">
        <g id="logos/amgen">
            <g id="Amgen" transform="translate(2.000000, 17.000000)">
                <path d="M17.2071429,19.9433333 L17.2071429,1.13428571 C19.5866667,1.29095238 21.53,2.39952381 23.1533333,4.1247619 C24.8952381,5.97238095 25.9814286,8.25142857 26.922381,10.5809524 C28.5071429,6.24666667 31.4914286,1.57095238 36.5366667,1.13428571 L36.5366667,7.6747619 C37.242381,5.63095238 38.2952381,3.77714286 40.0252381,2.42238095 C41.8733333,0.966190476 44.1633333,0.339047619 46.487619,0.339047619 C50.6928571,0.339047619 54.9038095,3.22285714 55.6538095,7.50095238 L50.8047619,7.50095238 C49.9757143,5.58571429 48.2119048,4.81857143 46.1847619,4.81857143 C42.9766667,4.81857143 40.5180952,7.19857143 40.5180952,10.4409524 C40.5180952,13.8004762 42.7466667,16.2642857 46.1571429,16.2642857 C47.5961905,16.2642857 48.9680952,15.8219048 50.0038095,14.7971429 C50.5804762,14.2204762 50.927619,13.5038095 51.2357143,12.7590476 L45.6585714,12.7590476 L45.6585714,8.26809524 L55.9957143,8.26809524 L55.9957143,1.13428571 L65.6885714,1.13428571 L65.6885714,5.65857143 L60.6266667,5.65857143 L60.6266667,8.26809524 L65.6885714,8.26809524 L65.6885714,12.7590476 L60.6266667,12.7590476 L60.6266667,15.4190476 L65.6885714,15.4190476 L65.6885714,19.9433333 L55.9957143,19.9433333 L55.9957143,12.7590476 C55.6652381,14.3547619 54.9985714,15.71 53.9795238,16.992381 C52.0419048,19.4280952 49.1804762,20.6657143 46.0842857,20.6657143 C43.7380952,20.6657143 41.4309524,20.0552381 39.6166667,18.51 C38.0147619,17.1490476 37.057619,15.3852381 36.5366667,13.3809524 L36.5366667,19.9433333 L32.0009524,19.9433333 L32.0009524,9.75761905 C29.8228571,12.6471429 29.0890476,16.387619 29.0219048,19.9433333 L24.7552381,19.9433333 C24.6771429,16.3595238 23.7252381,12.77 21.7428571,9.75761905 L21.7428571,19.9433333 L17.2071429,19.9433333" id="Fill-2" fill="#1A1919"></path>
                <path d="M0.250952381,19.9433333 L0.385714286,19.4842857 L1.16380952,16.8357143 C1.80761905,14.657619 2.6647619,12.5014286 3.6052381,10.4352381 C5.9852381,5.17142857 9.95,1.05 16.0309524,1.05 C16.1709524,1.05 16.3109524,1.05571429 16.4509524,1.05571429 L16.4509524,19.9433333 L11.8814286,19.9433333 L11.8814286,15.3795238 L6.06904762,15.3795238 L5.94047619,15.7828571 L5.66571429,16.6171429 L5.29095238,17.9385714 L4.93238095,19.3890476 L4.78666667,19.9433333 L0.250952381,19.9433333" id="Fill-3" fill="#1A1919"></path>
                <path d="M75.1742857,1.13428571 L79.71,1.13428571 L79.71,19.9433333 L75.6166667,19.9433333 C75.0119048,16.83 73.5390476,12.8714286 70.98,10.8942857 L70.98,19.9433333 L66.4385714,19.9433333 L66.4385714,1.12333333 C68.4995238,1.54285714 71.1928571,3.65952381 72.6933333,5.09857143 C73.6566667,6.02809524 74.597619,7.04761905 75.1742857,8.26809524 L75.1742857,1.13428571" id="Fill-4" fill="#1A1919"></path>
                <path d="M8.13,10.8942857 L11.8814286,10.8942857 L11.8814286,6.59952381 C9.89380952,7.52333333 9.05952381,9.00190476 8.13,10.8942857" id="Fill-5" fill="#FFFFFE"></path>
            </g>
        </g>
    </g>
</svg>
