<?xml version="1.0" encoding="UTF-8"?>
<svg width="84px" height="54px" viewBox="0 0 84 54" version="1.1" xmlns="http://www.w3.org/2000/svg" xmlns:xlink="http://www.w3.org/1999/xlink">
    <!-- Generator: Sketch 48 (47235) - http://www.bohemiancoding.com/sketch -->
    <title>logos/genentech</title>
    <desc>Created with Sketch.</desc>
    <defs></defs>
    <g id="Symbols" stroke="none" stroke-width="1" fill="none" fill-rule="evenodd">
        <g id="logos/genentech" fill="#15588D">
            <g id="Genentech" transform="translate(2.000000, 21.000000)">
                <path d="M10.9514124,4.33943503 L10.9514124,3.2759322 C10.9514124,3.2759322 11.2316384,0.27299435 5.65152542,0.27299435 C0.475932203,0.27299435 0.22779661,3.2759322 0.22779661,3.2759322 L0.22779661,8.62237288 C0.22779661,8.62237288 0.663502825,11.5945763 5.65152542,11.5945763 C9.89152542,11.5945763 10.9514124,9.46711864 10.9514124,9.46711864 L10.9514124,5.65288136 L5.65152542,5.65288136 L5.65152542,7.09107345 L8.14508475,7.09107345 L8.14508475,9.46711864 C8.14508475,9.46711864 8.02124294,10.1568362 5.65152542,10.1568362 C2.87683616,10.1568362 3.03276836,8.62237288 3.03276836,8.62237288 L3.03276836,3.2759322 C3.03276836,3.2759322 2.87683616,1.64971751 5.65152542,1.64971751 C8.36429379,1.64971751 8.14508475,3.2759322 8.14508475,3.2759322 L8.14508475,4.33943503 L10.9514124,4.33943503" id="Fill-2"></path>
                <path d="M20.740791,4.03389831 L20.740791,11.2587571 L23.000678,11.2587571 L23.000678,5.66870056 C23.0015819,5.66870056 23.000678,4.74531073 24.840678,4.74531073 C26.6960452,4.74531073 26.6960452,5.65288136 26.6960452,5.65288136 L26.6960452,11.2668927 L28.9559322,11.2668927 L28.9559322,5.41830508 C28.9559322,5.41830508 28.8623729,3.5100565 24.840678,3.5100565 C23.4639548,3.5100565 22.5496045,3.73242938 21.9421469,4.02711864 L21.9575141,4.02531073 L20.740791,4.03389831" id="Fill-3"></path>
                <path d="M38.6987571,4.03389831 L38.6987571,11.2587571 L40.959096,11.2587571 L40.959096,5.66870056 C40.959096,5.66870056 40.959096,4.74531073 42.799096,4.74531073 C44.6531073,4.74531073 44.6531073,5.65288136 44.6531073,5.65288136 L44.6531073,11.2668927 L46.9129944,11.2668927 L46.9129944,5.41830508 C46.9129944,5.41830508 46.819887,3.5100565 42.799096,3.5100565 C41.4223729,3.5100565 40.5075706,3.73242938 39.8987571,4.02711864 L39.9150282,4.02531073 L38.6987571,4.03389831" id="Fill-4"></path>
                <path d="M61.5480226,8.13785311 L55.5932203,8.13785311 C55.5932203,8.13785311 55.5769492,9.47661017 55.5882486,9.47661017 C55.5986441,9.47661017 55.5932203,10.3905085 57.4327684,10.3905085 C59.2890395,10.3905085 59.2908475,9.47254237 59.2908475,9.47254237 L59.2890395,8.87322034 L61.5480226,8.87322034 L61.5480226,9.46711864 C61.5480226,9.46711864 61.719774,11.5945763 57.4327684,11.5945763 C53.1462147,11.5945763 53.3328814,9.46711864 53.3328814,9.46711864 L53.3328814,5.76180791 C53.3328814,5.76180791 53.1611299,3.63435028 57.4327684,3.63435028 C61.7355932,3.63435028 61.5480226,5.77762712 61.5480226,5.77762712 L61.5480226,8.13785311 L61.5480226,8.13785311 Z M55.5896045,5.80881356 L55.5932203,6.63683616 L59.2890395,6.63683616 C59.2890395,6.63683616 59.2949153,5.80519774 59.2949153,5.80881356 C59.2949153,5.80881356 59.2967232,4.87050847 57.4327684,4.87050847 C55.5932203,4.87050847 55.5896045,5.80881356 55.5896045,5.80881356 L55.5896045,5.80881356 Z" id="Fill-5"></path>
                <path d="M70.5581921,6.77242938 L70.5581921,5.77762712 C70.5581921,5.77762712 70.7453107,3.63435028 66.4424859,3.63435028 C62.1722034,3.63435028 62.3435028,5.76180791 62.3435028,5.76180791 L62.3435028,9.46711864 C62.3435028,9.46711864 62.1563842,11.5945763 66.4424859,11.5945763 C70.7294915,11.5945763 70.5581921,9.46711864 70.5581921,9.46711864 L70.5581921,8.54508475 L68.2983051,8.54508475 L68.3014689,9.47254237 C68.3014689,9.47254237 68.2983051,10.3905085 66.4424859,10.3905085 C64.6038418,10.3905085 64.6088136,9.46711864 64.5975141,9.46666667 C64.5880226,9.46666667 64.6038418,5.80881356 64.6038418,5.80881356 C64.6101695,5.80881356 64.6345763,4.87050847 66.5369492,4.87050847 C68.3285876,4.87050847 68.2983051,5.79299435 68.2983051,5.79299435 L68.2983051,6.7679096 L70.5581921,6.77242938" id="Fill-6"></path>
                <path d="M47.4291525,3.90689266 L48.1455367,3.90689266 L48.1455367,2.17220339 L50.4054237,2.17220339 L50.4054237,3.90689266 L52.8840678,3.90689266 L52.8840678,5.12677966 L50.4054237,5.12677966 L50.4054237,9.56745763 C50.4054237,9.56745763 50.5306215,10.6933333 52.7751412,10.3828249 C52.7751412,10.3828249 52.7868927,11.4842938 52.7724294,11.4874576 C50.8239548,11.740565 48.1455367,11.5380791 48.1455367,9.56745763 L48.1455367,5.12677966 L47.4291525,5.12677966 L47.4291525,3.90689266" id="Fill-7"></path>
                <path d="M71.4467797,0.369717514 C71.4467797,0.369717514 73.7071186,0.38960452 73.7071186,0.366101695 C73.7071186,0.350282486 73.6949153,3.68135593 73.7071186,3.68135593 C74.2051977,3.57514124 74.8022599,3.5100565 75.5462147,3.5100565 C79.5679096,3.5100565 79.6619209,5.41830508 79.6619209,5.41830508 L79.6619209,11.2668927 L77.4015819,11.2668927 L77.4015819,5.65288136 C77.4015819,5.65288136 77.4015819,4.74531073 75.5462147,4.74531073 C73.7071186,4.74531073 73.7071186,5.66870056 73.7071186,5.66870056 L73.7071186,11.2587571 L71.4467797,11.2587571 L71.4467797,0.369717514" id="Fill-8"></path>
                <path d="M37.9362712,8.13785311 L31.9823729,8.13785311 C31.9823729,8.13785311 31.9665537,9.47661017 31.9774011,9.47661017 C31.9873446,9.47661017 31.9823729,10.3905085 33.8210169,10.3905085 C35.6772881,10.3905085 35.680904,9.47254237 35.680904,9.47254237 L35.6772881,8.87322034 L37.9362712,8.87322034 L37.9362712,9.46711864 C37.9362712,9.46711864 38.1089266,11.5945763 33.8210169,11.5945763 C29.5344633,11.5945763 29.7220339,9.46711864 29.7220339,9.46711864 L29.7220339,5.76180791 C29.7220339,5.76180791 29.5507345,3.63435028 33.8210169,3.63435028 C38.1238418,3.63435028 37.9362712,5.77762712 37.9362712,5.77762712 L37.9362712,8.13785311 L37.9362712,8.13785311 Z M31.979661,5.80881356 L31.9823729,6.63683616 L35.6772881,6.63683616 C35.6772881,6.63683616 35.6836158,5.80519774 35.6836158,5.80881356 C35.6845198,5.80881356 35.6863277,4.87050847 33.8210169,4.87050847 C31.9823729,4.87050847 31.979661,5.80881356 31.979661,5.80881356 L31.979661,5.80881356 Z" id="Fill-9"></path>
                <path d="M19.9769492,8.13785311 L14.0216949,8.13785311 C14.0216949,8.13785311 14.0067797,9.47661017 14.0176271,9.47661017 C14.0280226,9.47661017 14.0216949,10.3905085 15.8621469,10.3905085 C17.7166102,10.3905085 17.720678,9.47254237 17.720678,9.47254237 L17.7166102,8.87322034 L19.9769492,8.87322034 L19.9769492,9.46711864 C19.9769492,9.46711864 20.1487006,11.5945763 15.8621469,11.5945763 C11.5751412,11.5945763 11.7622599,9.46711864 11.7622599,9.46711864 L11.7622599,5.76180791 C11.7622599,5.76180791 11.5900565,3.63435028 15.8621469,3.63435028 C20.1645198,3.63435028 19.9769492,5.77762712 19.9769492,5.77762712 L19.9769492,8.13785311 L19.9769492,8.13785311 Z M14.019435,5.80881356 L14.0216949,6.63683616 L17.7166102,6.63683616 C17.7166102,6.63683616 17.7238418,5.80519774 17.7238418,5.80881356 C17.7238418,5.80881356 17.7265537,4.87050847 15.8621469,4.87050847 C14.0216949,4.87050847 14.019435,5.80881356 14.019435,5.80881356 L14.019435,5.80881356 Z" id="Fill-10"></path>
            </g>
        </g>
    </g>
</svg>
