<svg width="84" height="54" viewBox="0 0 84 54" fill="none" xmlns="http://www.w3.org/2000/svg">
<title>McCORMICK</title>
<path d="M12.007 38.5384L12.057 51.4174L9.902 51.4434V43.7204L7.542 49.3404H6.515L4.155 43.7204V51.4434L2 51.4184L2.052 38.5384H5.002L6.992 43.7714L9.056 38.5384H12.007Z" fill="#004D8D"/>
<path d="M57.244 38.5384L57.296 51.4174L55.14 51.4434V43.7204L52.78 49.3404H51.754L49.394 43.7204V51.4434L47.24 51.4184L47.29 38.5384H50.24L52.232 43.7714L54.294 38.5384H57.244Z" fill="#004D8D"/>
<path d="M58.702 38.5384H61.228L61.229 51.4434L58.652 51.4184L58.702 38.5384Z" fill="#004D8D"/>
<path d="M18.362 44.4064V42.0364C14.481 41.4634 12.684 44.3814 12.684 46.9594C12.684 49.5374 14.222 51.5434 16.202 51.5174C18.05 51.4924 19.222 49.9544 19.222 49.9544L18.442 48.9394C18.442 48.9394 17.529 49.4864 16.592 49.4864C15.654 49.4864 14.846 48.2104 14.846 46.8814C14.846 45.5524 15.393 44.4054 16.202 44.0684C17.138 43.6774 18.362 44.4064 18.362 44.4064Z" fill="#004D8D"/>
<path d="M27.338 41.3624V38.4404C21.869 36.9934 19.453 41.6964 19.453 45.2764C19.453 48.8564 21.692 51.6234 24.44 51.5864C27.007 51.5524 28.124 49.2454 28.124 49.2454L27.209 48.2454C27.209 48.2454 26.142 49.2734 24.839 49.2734C23.538 49.2734 22.237 47.0084 22.127 45.1684C21.984 42.7624 22.866 40.7694 24.011 40.3624C25.782 39.7344 27.338 41.3624 27.338 41.3624Z" fill="#004D8D"/>
<path d="M69.95 41.3624V38.4404C64.481 36.9934 62.064 41.6964 62.064 45.2764C62.064 48.8564 64.302 51.6234 67.052 51.5864C69.618 51.5524 70.735 49.2454 70.735 49.2454L69.821 48.2454C69.821 48.2454 68.752 49.2734 67.451 49.2734C66.15 49.2734 64.847 47.0084 64.738 45.1684C64.595 42.7624 65.477 40.7694 66.622 40.3624C68.393 39.7344 69.95 41.3624 69.95 41.3624Z" fill="#004D8D"/>
<path d="M32.408 38.3364C29.853 38.3364 27.781 41.3154 27.781 44.9904C27.781 48.6664 29.853 51.6454 32.408 51.6454C34.962 51.6454 37.035 48.6654 37.035 44.9904C37.035 41.3154 34.962 38.3364 32.408 38.3364ZM34.578 44.9904C34.578 47.6004 33.607 49.7144 32.408 49.7144C31.21 49.7144 30.237 47.6004 30.237 44.9904C30.237 42.3814 31.21 40.2664 32.407 40.2664C33.607 40.2664 34.578 42.3814 34.578 44.9904Z" fill="#004D8D"/>
<path d="M42.118 38.4364C46.802 38.4364 46.317 44.7194 43.832 45.5764L45.946 51.3454H43.346L41.261 46.0904H40.233V51.5454H37.692V38.4364H42.118ZM40.376 40.7784V43.5774C40.376 43.5774 43.032 44.1764 43.032 42.2344C43.032 40.4733 41.1997 40.6851 40.5392 40.7615C40.4713 40.7693 40.4159 40.7757 40.376 40.7784Z" fill="#004D8D"/>
<path d="M76.443 43.0784C77.238 40.7744 78.616 40.8544 78.933 40.8814L78.802 38.6024C78.802 38.6024 77.531 38.1794 76.552 39.3444C75.813 40.2194 74.496 41.8874 73.886 42.6624V38.5394H71.358L71.307 51.4194L73.886 51.4434V47.4404L74.882 46.0434L77.292 51.3384H80.098L76.443 43.0784Z" fill="#004D8D"/>
<path d="M80.7325 37.8027L80.53 38.7334L79.58 38.6384L80.403 39.1204L80.021 39.9944L80.733 39.3604L81.447 39.9944L81.063 39.1204L81.887 38.6384L80.937 38.7334L80.7325 37.8027Z" fill="#004D8D"/>
<path d="M49.972 15.7274L43.462 20.9864V26.1174L47.638 29.7074L53.043 25.3474L52.797 25.0914C52.797 25.0914 51.323 26.6294 50.097 26.3734C48.131 26.1174 47.515 24.8344 47.515 22.9104V18.5504C47.515 18.5504 48.992 20.2164 50.096 20.2164C51.077 20.2164 52.059 19.3194 53.042 18.2924L49.972 15.7274Z" fill="#004D8D"/>
<path d="M26.383 4.44142L26.333 4.74642L26.3328 4.74764C26.3049 4.92557 24.4921 16.4855 26.331 33.0884L26.367 33.4164L26.69 33.4864C41.077 36.5484 54.965 33.5144 55.104 33.4834L55.404 33.4164L55.454 33.1114C55.474 32.9974 57.316 21.4124 55.472 4.76142L55.436 4.43542L55.113 4.36642C40.725 1.30342 26.824 4.34242 26.685 4.37342L26.383 4.44142ZM55.377 19.4764C55.377 26.6644 54.768 31.4534 54.599 32.6564C52.516 33.0724 40.104 35.3134 27.207 32.6504C26.622 27.2504 26.421 22.3904 26.421 18.3114C26.421 11.1614 27.021 6.40042 27.191 5.20142C29.274 4.78442 41.697 2.53742 54.595 5.20142C55.177 10.5734 55.377 15.4114 55.377 19.4764Z" fill="#004D8D"/>
<path d="M28.967 11.1114L32.652 7.90542L35.722 10.4704L38.672 7.90542L41.619 10.3424L44.444 7.90542L47.514 10.4704V16.8814L43.462 20.2164V12.1364C43.462 12.1364 43.34 10.9834 41.62 10.9834V29.5784H37.567V12.1364C37.567 12.1364 37.567 10.9824 35.847 10.9824V29.5774H31.671V13.0354C31.671 13.0354 31.793 10.7264 28.968 11.1114" fill="#D53540"/>
</svg>
