<?xml version="1.0" encoding="UTF-8"?>
<svg width="84px" height="54px" viewBox="0 0 84 54" version="1.1" xmlns="http://www.w3.org/2000/svg" xmlns:xlink="http://www.w3.org/1999/xlink">
    <!-- Generator: Sketch 48 (47235) - http://www.bohemiancoding.com/sketch -->
    <title>logos/novartis</title>
    <desc>Created with Sketch.</desc>
    <defs></defs>
    <g id="Symbols" stroke="none" stroke-width="1" fill="none" fill-rule="evenodd">
        <g id="logos/novartis">
            <g id="Novartis" transform="translate(2.000000, 20.000000)">
                <path d="M19.1247158,11.8614856 C19.1424795,12.547079 19.2566746,12.7758921 19.4330426,12.8367962 C19.5819191,12.8896643 19.7489823,12.8981232 19.8898229,12.8981232 C19.9862543,12.8981232 20.0391224,12.9163098 20.0391224,12.968755 C20.0391224,13.0389638 19.9600317,13.0571504 19.8365319,13.0571504 C19.2655564,13.0571504 18.9136664,13.0300819 18.7466032,13.0300819 C18.6679355,13.0300819 18.2547185,13.0571504 17.7975152,13.0571504 C17.6833201,13.0571504 17.6046524,13.0478456 17.6046524,12.968755 C17.6046524,12.9163098 17.6566746,12.8981232 17.7450701,12.8981232 C17.8592651,12.8981232 18.0174465,12.8896643 18.1405234,12.8541369 C18.3693365,12.7839281 18.404018,12.5288924 18.4133228,11.7642083 L18.4915675,6.56071901 C18.4915675,6.38519693 18.5182131,6.26169707 18.6061856,6.26169707 C18.702617,6.26169707 18.7821306,6.37589215 18.9314301,6.53449643 C19.0371663,6.64869151 20.3732487,8.08120539 21.6564631,9.35596088 C22.2540841,9.95400476 23.44129,11.2198784 23.5905895,11.360719 L23.6345757,11.360719 L23.5470262,7.41337563 C23.5377214,6.87750463 23.4582078,6.7100185 23.2475813,6.62246894 C23.1156225,6.56960085 22.9045731,6.56960085 22.7814962,6.56960085 C22.6761829,6.56960085 22.6415015,6.54295533 22.6415015,6.49093312 C22.6415015,6.42072429 22.7379329,6.41141951 22.8698916,6.41141951 C23.326672,6.41141951 23.7487708,6.43764208 23.9335977,6.43764208 C24.030452,6.43764208 24.3637325,6.41141951 24.7951361,6.41141951 C24.9093312,6.41141951 24.9968808,6.42072429 24.9968808,6.49093312 C24.9968808,6.54295533 24.9440127,6.56960085 24.8386994,6.56960085 C24.7511499,6.56960085 24.6805181,6.56960085 24.5747819,6.59624637 C24.329051,6.66645519 24.2584192,6.85085911 24.2495374,7.3431668 L24.1526831,12.8896643 C24.1526831,13.083373 24.1180016,13.1620407 24.0389109,13.1620407 C23.9420566,13.1620407 23.8363204,13.0651864 23.739889,12.968755 C23.1862543,12.4413428 22.0612213,11.2905102 21.1468147,10.3849855 C20.1884219,9.43505155 19.2126883,8.33624108 19.054507,8.1691779 L19.0278615,8.1691779 L19.1247158,11.8614856" id="Fill-2" fill="#005F77"></path>
                <path d="M27.7544806,9.73407349 C27.7544806,8.23092784 28.7479778,6.28791964 31.3850383,6.28791964 C33.5737774,6.28791964 34.9360825,7.56225218 34.9360825,9.57589215 C34.9360825,11.5895321 33.5302141,13.1798044 31.2970658,13.1798044 C28.7746233,13.1798044 27.7544806,11.2905102 27.7544806,9.73407349 L27.7544806,9.73407349 Z M33.7057362,9.90113666 C33.7057362,7.93275178 32.5718213,6.7100185 31.1300026,6.7100185 C30.1195876,6.7100185 28.9674861,7.27253503 28.9674861,9.46127412 C28.9674861,11.2905102 29.978747,12.7399418 31.6662966,12.7399418 C32.2816812,12.7399418 33.7057362,12.4413428 33.7057362,9.90113666 L33.7057362,9.90113666 Z" id="Fill-3" fill="#005F77"></path>
                <path d="M37.8078773,7.27253503 C37.6061327,6.78953212 37.4559873,6.69267777 37.1400476,6.60470526 C37.0085118,6.56960085 36.8676712,6.56960085 36.7974623,6.56960085 C36.7179487,6.56960085 36.6917261,6.54295533 36.6917261,6.49093312 C36.6917261,6.42072429 36.7881575,6.41141951 36.9205393,6.41141951 C37.3866244,6.41141951 37.887391,6.43764208 38.1948718,6.43764208 C38.4148031,6.43764208 38.836479,6.41141951 39.2759186,6.41141951 C39.3812318,6.41141951 39.4780862,6.42876024 39.4780862,6.49093312 C39.4780862,6.55226011 39.425641,6.56960085 39.3461274,6.56960085 C39.2057098,6.56960085 39.0741739,6.57848269 39.0035422,6.63135078 C38.9417922,6.67533703 38.9159926,6.73666402 38.9159926,6.81575469 C38.9159926,6.93037272 38.9946603,7.17610362 39.1181602,7.49204335 L40.6297647,11.48295 L40.6648692,11.48295 C41.0429818,10.5165213 42.1857785,7.68575205 42.396405,7.10589479 C42.4399683,6.99127676 42.4754956,6.85974095 42.4754956,6.78022733 C42.4754956,6.7100185 42.4399683,6.63980967 42.3617235,6.61316416 C42.2564103,6.57848269 42.1240285,6.56960085 42.0102564,6.56960085 C41.9311657,6.56960085 41.860534,6.56071901 41.860534,6.49896907 C41.860534,6.42876024 41.9396246,6.41141951 42.1066878,6.41141951 C42.5457045,6.41141951 42.9153582,6.43764208 43.0295533,6.43764208 C43.1788528,6.43764208 43.5924927,6.41141951 43.8559873,6.41141951 C43.9706053,6.41141951 44.0408142,6.42876024 44.0408142,6.49093312 C44.0408142,6.55226011 43.9875231,6.56960085 43.8999736,6.56960085 C43.8120011,6.56960085 43.6280201,6.56960085 43.4685699,6.67533703 C43.3543748,6.75400476 43.222839,6.9037272 42.985567,7.46666667 C42.6434047,8.29225482 42.4052868,8.76679884 41.9311657,9.84826857 L40.7613006,12.5288924 C40.5329104,13.0389638 40.4800423,13.1798044 40.3578113,13.1798044 C40.2436162,13.1798044 40.1899022,13.0571504 40.023262,12.6430875 L37.8078773,7.27253503" id="Fill-4" fill="#005F77"></path>
                <path d="M47.0893999,10.7622522 C47.0449907,10.7622522 47.0272271,10.7804388 47.0098863,10.832461 L46.5349194,12.0894528 C46.4469469,12.309807 46.4033836,12.5208565 46.4033836,12.6257468 C46.4033836,12.7839281 46.4828972,12.8981232 46.7548506,12.8981232 L46.8868094,12.8981232 C46.9925456,12.8981232 47.0191911,12.9163098 47.0191911,12.968755 C47.0191911,13.0389638 46.9659001,13.0571504 46.8690457,13.0571504 C46.5877875,13.0571504 46.2096749,13.0300819 45.9377214,13.0300819 C45.8404441,13.0300819 45.3574412,13.0571504 44.9006609,13.0571504 C44.7864658,13.0571504 44.7335977,13.0389638 44.7335977,12.968755 C44.7335977,12.9163098 44.7682791,12.8981232 44.838488,12.8981232 L45.1117103,12.8807824 C45.5156225,12.8279144 45.6826857,12.5288924 45.8577848,12.0894528 L48.0647105,6.56960085 C48.1704467,6.31456516 48.2233148,6.21771081 48.3112873,6.21771081 C48.3899551,6.21771081 48.4428232,6.29722443 48.5307957,6.49896907 C48.7418451,6.98239492 50.1489823,10.5693894 50.7106529,11.904626 C51.0443563,12.6959556 51.299392,12.8190325 51.4842189,12.8630188 C51.6157547,12.8896643 51.7481364,12.8981232 51.8534496,12.8981232 C51.9236585,12.8981232 51.9676447,12.907005 51.9676447,12.968755 C51.9676447,13.0389638 51.8885541,13.0571504 51.5637325,13.0571504 C51.2465239,13.0571504 50.6053397,13.0571504 49.9019826,13.0389638 C49.7438012,13.0300819 49.6376421,13.0300819 49.6376421,12.968755 C49.6376421,12.9163098 49.6731694,12.8981232 49.761142,12.8896643 C49.8233148,12.8723236 49.8846418,12.7928099 49.8406556,12.6870738 L49.1372984,10.8244251 C49.1199577,10.7804388 49.0937351,10.7622522 49.0497489,10.7622522 L47.0893999,10.7622522 L47.0893999,10.7622522 Z M48.8826857,10.3232355 C48.926249,10.3232355 48.9351308,10.29659 48.926249,10.2703674 L48.1353423,8.09854613 C48.1264605,8.0642876 48.1175786,8.02030135 48.0913561,8.02030135 C48.0647105,8.02030135 48.0473698,8.0642876 48.038488,8.09854613 L47.2298176,10.2614856 C47.2209358,10.29659 47.2298176,10.3232355 47.264922,10.3232355 L48.8826857,10.3232355 L48.8826857,10.3232355 Z" id="Fill-5" fill="#005F77"></path>
                <path d="M54.6482686,8.96050753 C54.6482686,7.62442506 54.6482686,7.37784827 54.6309278,7.09659001 C54.6131642,6.79799101 54.5425324,6.65715041 54.2528152,6.59624637 C54.1826064,6.57848269 54.032884,6.56960085 53.909807,6.56960085 C53.8129527,6.56960085 53.7605075,6.55226011 53.7605075,6.49093312 C53.7605075,6.42876024 53.8218345,6.41141951 53.9537933,6.41141951 C54.4198784,6.41141951 54.9730901,6.43764208 55.157917,6.43764208 C55.456516,6.43764208 56.1243458,6.41141951 56.3975681,6.41141951 C56.9512027,6.41141951 57.5399418,6.4642876 58.0149088,6.78953212 C58.2610626,6.95574941 58.6125297,7.40449379 58.6125297,7.99365583 C58.6125297,8.64372191 58.3401533,9.24176579 57.4519693,9.9628866 C58.2339942,10.947079 58.8409199,11.7299498 59.3594502,12.2742797 C59.8521808,12.7839281 60.2116838,12.846101 60.3444885,12.8723236 C60.440497,12.8896643 60.5204335,12.8981232 60.5906423,12.8981232 C60.6608512,12.8981232 60.6959556,12.9247687 60.6959556,12.968755 C60.6959556,13.0389638 60.6342057,13.0571504 60.5288924,13.0571504 L59.6931536,13.0571504 C59.2016918,13.0571504 58.9813376,13.0127412 58.7533703,12.8896643 C58.3752577,12.6870738 58.0411314,12.2742797 57.5488237,11.5967222 C57.1969337,11.1141422 56.7925985,10.5165213 56.6784034,10.3849855 C56.6344171,10.3321174 56.5823949,10.3232355 56.520222,10.3232355 L55.755115,10.3054718 C55.7111287,10.3054718 55.6849062,10.3232355 55.6849062,10.3761036 L55.6849062,10.4987576 C55.6849062,11.3167328 55.6849062,12.011208 55.7288924,12.3800159 C55.755115,12.6350515 55.808406,12.8279144 56.0723236,12.8630188 C56.2034364,12.8807824 56.3975681,12.8981232 56.5024584,12.8981232 C56.5726672,12.8981232 56.6086175,12.9247687 56.6086175,12.968755 C56.6086175,13.0300819 56.5464446,13.0571504 56.4322495,13.0571504 C55.9221782,13.0571504 55.2721121,13.0300819 55.1409992,13.0300819 C54.9730901,13.0300819 54.4198784,13.0571504 54.0679884,13.0571504 C53.9537933,13.0571504 53.8920434,13.0300819 53.8920434,12.968755 C53.8920434,12.9247687 53.9275707,12.8981232 54.032884,12.8981232 C54.1648427,12.8981232 54.269733,12.8807824 54.3496696,12.8630188 C54.5247687,12.8279144 54.568755,12.6350515 54.6042823,12.3800159 C54.6482686,12.011208 54.6482686,11.3167328 54.6482686,10.5072165 L54.6482686,8.96050753 L54.6482686,8.96050753 Z M55.6849062,9.65498282 C55.6849062,9.75183717 55.7035157,9.78694158 55.7644198,9.81316416 C55.9492466,9.87449114 56.2131642,9.90113666 56.4322495,9.90113666 C56.7837166,9.90113666 56.8983347,9.86603225 57.056516,9.75183717 C57.3204335,9.55812847 57.5750463,9.15379329 57.5750463,8.43267248 C57.5750463,7.18498546 56.7486122,6.82421359 56.2305049,6.82421359 C56.0101507,6.82421359 55.8519693,6.83351837 55.7644198,6.85974095 C55.7035157,6.87750463 55.6849062,6.9121861 55.6849062,6.98239492 L55.6849062,9.65498282 L55.6849062,9.65498282 Z" id="Fill-6" fill="#005F77"></path>
                <path d="M63.8274385,6.9037272 L62.5175786,6.93883162 C62.0079302,6.95574941 61.7968808,7.00058155 61.664922,7.19344436 C61.5769495,7.32582606 61.5329633,7.43113931 61.5156225,7.50134814 C61.4978588,7.57197991 61.4716363,7.60750727 61.4187682,7.60750727 C61.3570182,7.60750727 61.3392546,7.56225218 61.3392546,7.46666667 C61.3392546,7.32582606 61.5067407,6.52561459 61.5240814,6.45540576 C61.5507269,6.34121068 61.5769495,6.28791964 61.6293947,6.28791964 C61.7000264,6.28791964 61.7879989,6.37589215 62.0079302,6.39365583 C62.262543,6.42072429 62.5966693,6.43764208 62.8868094,6.43764208 L66.3680677,6.43764208 C66.9297383,6.43764208 67.1407877,6.35009252 67.2118425,6.35009252 C67.2735924,6.35009252 67.2816283,6.40211472 67.2816283,6.53449643 C67.2816283,6.71932329 67.2554058,7.32582606 67.2554058,7.55421623 C67.2469469,7.64176579 67.2296061,7.69463389 67.176738,7.69463389 C67.1065292,7.69463389 67.0887655,7.65149352 67.0798837,7.51868887 L67.0710019,7.42183452 C67.0536611,7.19344436 66.8155432,6.94771345 66.0335184,6.93037272 L64.9258261,6.9037272 L64.9258261,10.5072165 C64.9258261,11.3167328 64.9258261,12.011208 64.9698123,12.3884748 C64.9960349,12.6350515 65.0493259,12.8279144 65.3128205,12.8630188 C65.4358974,12.8807824 65.6291832,12.8981232 65.761142,12.8981232 C65.8575734,12.8981232 65.9015596,12.9247687 65.9015596,12.968755 C65.9015596,13.0300819 65.8313508,13.0571504 65.7349194,13.0571504 C65.1546392,13.0571504 64.6010045,13.0300819 64.3552736,13.0300819 C64.1522601,13.0300819 63.5986254,13.0571504 63.2467354,13.0571504 C63.1325403,13.0571504 63.0716363,13.0300819 63.0716363,12.968755 C63.0716363,12.9247687 63.1063177,12.8981232 63.2120539,12.8981232 C63.3435897,12.8981232 63.44848,12.8807824 63.5284166,12.8630188 C63.7047846,12.8279144 63.7572297,12.6350515 63.7834523,12.3800159 C63.8274385,12.011208 63.8274385,11.3167328 63.8274385,10.5072165 L63.8274385,6.9037272" id="Fill-7" fill="#005F77"></path>
                <path d="M70.6563045,8.96050753 C70.6563045,7.62442506 70.6563045,7.37784827 70.6389638,7.09659001 C70.6212001,6.79799101 70.5336505,6.64869151 70.3399418,6.60470526 C70.2430875,6.57848269 70.1288924,6.56960085 70.0231562,6.56960085 C69.9364526,6.56960085 69.8831615,6.55226011 69.8831615,6.48162834 C69.8831615,6.42876024 69.9533703,6.41141951 70.0942109,6.41141951 C70.4274914,6.41141951 70.981549,6.43764208 71.2370077,6.43764208 C71.456516,6.43764208 71.9750463,6.41141951 72.3095956,6.41141951 C72.4237906,6.41141951 72.4939995,6.42876024 72.4939995,6.48162834 C72.4939995,6.55226011 72.4411314,6.56960085 72.3535818,6.56960085 C72.2651864,6.56960085 72.1949775,6.57848269 72.0896643,6.59624637 C71.8519693,6.63980967 71.7817605,6.78953212 71.7644198,7.09659001 C71.7466561,7.37784827 71.7466561,7.62442506 71.7466561,8.96050753 L71.7466561,10.5072165 C71.7466561,11.360719 71.7466561,12.0547713 71.7817605,12.4320381 C71.8079831,12.669733 71.869733,12.8279144 72.1336505,12.8630188 C72.2567275,12.8807824 72.4500132,12.8981232 72.581549,12.8981232 C72.6788263,12.8981232 72.7219667,12.9247687 72.7219667,12.968755 C72.7219667,13.0300819 72.6517579,13.0571504 72.5549035,13.0571504 C71.9750463,13.0571504 71.4214116,13.0300819 71.1841396,13.0300819 C70.981549,13.0300819 70.4274914,13.0571504 70.0760243,13.0571504 C69.9618292,13.0571504 69.9009252,13.0300819 69.9009252,12.968755 C69.9009252,12.9247687 69.9364526,12.8981232 70.0413428,12.8981232 C70.1728787,12.8981232 70.2786149,12.8807824 70.3572826,12.8630188 C70.5336505,12.8279144 70.5860957,12.6786149 70.6123183,12.4240021 C70.6563045,12.0547713 70.6563045,11.360719 70.6563045,10.5072165 L70.6563045,8.96050753" id="Fill-8" fill="#005F77"></path>
                <path d="M75.9033571,12.9509913 C75.7625165,12.8896643 75.7362939,12.846101 75.7362939,12.6519693 C75.7362939,12.1689664 75.7713984,11.6411314 75.7802802,11.5011367 C75.789162,11.3691779 75.8153846,11.2714777 75.8860164,11.2714777 C75.9651071,11.2714777 75.973566,11.3514142 75.973566,11.4216231 C75.973566,11.5362411 76.0090933,11.720645 76.0526566,11.8707904 C76.2463653,12.5208565 76.7648956,12.7581285 77.3100714,12.7581285 C78.1005551,12.7581285 78.4875496,12.2214116 78.4875496,11.7553265 C78.4875496,11.3247687 78.3551679,10.9123976 77.626434,10.3494581 L77.2216759,10.0330954 C76.2552472,9.27687021 75.9211208,8.66148559 75.9211208,7.94966957 C75.9211208,6.98239492 76.7297912,6.28791964 77.9516786,6.28791964 C78.522231,6.28791964 78.8918847,6.37589215 79.1202749,6.43764208 C79.1993656,6.45540576 79.2433518,6.48162834 79.2433518,6.54295533 C79.2433518,6.65715041 79.2086704,6.9121861 79.2086704,7.59820248 C79.2086704,7.79191118 79.1820248,7.86127412 79.1113931,7.86127412 C79.0496431,7.86127412 79.0234206,7.80925192 79.0234206,7.70309278 C79.0234206,7.62442506 78.9798573,7.35162569 78.7950304,7.12323553 C78.6630716,6.95574941 78.408036,6.69267777 77.8379064,6.69267777 C77.1869944,6.69267777 76.7915411,7.07079038 76.7915411,7.59820248 C76.7915411,8.00296061 76.9937087,8.30959556 77.7232884,8.86365319 L77.9690193,9.04848004 C79.0234206,9.86603225 79.410415,10.4551943 79.410415,11.2905102 C79.410415,11.8001586 79.2171293,12.4058155 78.5844039,12.8190325 C78.1445414,13.1002908 77.6530796,13.1798044 77.1869944,13.1798044 C76.6769231,13.1798044 76.2814697,13.1180545 75.9033571,12.9509913" id="Fill-9" fill="#005F77"></path>
                <path d="M5.64588951,13.6391224 C0.768913561,13.2665081 -0.713930743,10.4619614 0.919904837,7.30425588 C1.80005287,5.60401798 3.14417129,3.77435897 1.54205657,2.08427174 C1.4989162,2.02844303 1.53486651,1.99291568 1.60169178,2.0233677 C5.25043616,3.4778747 3.35183717,6.41480307 2.72883955,7.63076923 C1.50103093,10.028443 2.28432461,12.9399947 5.64588951,13.5663759 C5.72032778,13.5828707 5.7148295,13.6450436 5.64588951,13.6391224" id="Fill-10" fill="#C96E3D"></path>
                <path d="M6.29680148,10.9639968 L7.12281258,0.768913561 L5.18868623,0.765952947 L6.22870738,10.9639968 C6.23420566,11.0308221 6.29257203,11.0287074 6.29680148,10.9639968" id="Fill-11" fill="#005F77"></path>
                <path d="M8.50541898,5.83240814 C9.70954269,6.77980439 11.6736981,12.0471583 6.87877346,13.56553 C6.80137457,13.5854084 6.8072958,13.6446207 6.88004229,13.6370077 C14.5078509,12.6841131 11.8864393,7.21036215 8.56928364,5.76769759 C8.48131113,5.72498017 8.4394396,5.78038594 8.50541898,5.83240814" id="Fill-12" fill="#E7AC38"></path>
            </g>
        </g>
    </g>
</svg>