<?xml version="1.0" encoding="UTF-8"?>
<svg width="84px" height="54px" viewBox="0 0 84 54" version="1.1" xmlns="http://www.w3.org/2000/svg" xmlns:xlink="http://www.w3.org/1999/xlink">
    <!-- Generator: Sketch 48 (47235) - http://www.bohemiancoding.com/sketch -->
    <title>logos/johnson-and-johnson</title>
    <desc>Created with Sketch.</desc>
    <defs></defs>
    <g id="Symbols" stroke="none" stroke-width="1" fill="none" fill-rule="evenodd">
        <g id="logos/johnson-and-johnson" fill="#DC3B41">
            <g id="Johnson__and__Johnson" transform="translate(2.000000, 20.000000)">
                <path d="M6.06,5.29106383 C5.74382979,5.67021277 5.40255319,6.12553191 5.40255319,6.80851064 C5.40255319,8.08553191 6.13574468,9.08468085 7.45106383,9.08510638 C9.19659574,9.08510638 9.53787234,7.30170213 9.53787234,6.45446809 C9.53787234,6.35574468 9.53234043,6.2612766 9.52212766,6.17106383 L9.52255319,6.1706383 C9.98553191,6.09957447 10.447234,5.90595745 10.8812766,5.62297872 L10.8834043,5.62425532 C10.9046809,6.47319149 10.9289362,7.29531915 10.9289362,7.66851064 C10.9165957,8.84468085 11.0046809,8.98382979 11.3714894,8.98382979 C11.7638298,8.98382979 11.9787234,8.18723404 12.3455319,7.42808511 C12.7753191,6.47957447 13.2306383,5.53106383 13.5089362,5.53106383 C14.0276596,5.53106383 13.0914894,9.03446809 14.3438298,9.03446809 C15.2289362,9.03446809 16.5442553,5.48042553 17.113617,5.48042553 C17.5561702,5.48042553 16.6578723,9.03446809 17.6442553,9.03446809 C18.3651064,9.03446809 19.5919149,5.41744681 20.0093617,5.41744681 C20.4395745,5.41744681 19.5540426,9.03446809 20.8314894,9.03446809 C21.9821277,9.03446809 22.9182979,6.06255319 23.2344681,6.06255319 C23.386383,6.06255319 23.6710638,6.46042553 23.8740426,7.00595745 L23.8723404,7.02 C23.472766,7.51787234 23.2217021,7.99489362 23.2217021,8.35148936 C23.2217021,8.80680851 23.5757447,9.03446809 23.9297872,9.03446809 C24.4608511,9.03446809 24.9795745,8.46510638 24.9795745,7.64297872 C24.9795745,7.47106383 24.9651064,6.98042553 24.7719149,6.48893617 L24.7731915,6.48382979 C25.5680851,5.74680851 26.5957447,5.10468085 27.2178723,5 C26.8638298,5.40468085 26.2191489,5.7587234 26.2191489,6.90978723 C26.2191489,8.14893617 27.167234,9.09744681 28.3817021,9.09744681 C30.0889362,9.09744681 30.4557447,7.27659574 30.4557447,6.56808511 C30.4557447,6.31021277 30.4225532,6.07787234 30.3634043,5.8706383 L30.3617021,5.87319149 C30.9412766,5.60042553 31.38,5.21489362 31.5434043,5.21489362 C31.8974468,5.21489362 31.7582979,6.28978723 31.7582979,7.40297872 C31.7582979,8.23744681 31.6319149,9.09744681 32.2514894,9.09744681 C32.7195745,9.09744681 32.947234,8.17404255 33.4148936,7.35234043 C33.8702128,6.54297872 34.3634043,5.44255319 34.5531915,5.44255319 C34.8059574,5.44255319 34.7051064,7.13744681 34.7051064,7.46595745 C34.7051064,7.88340426 34.6289362,9.1987234 35.4889362,9.1987234 C36.0706383,9.1987234 37.1582979,7.56723404 37.1582979,7.35234043 C37.1582979,7.2387234 37.1582979,7.21319149 37.0697872,7.21319149 C36.9812766,7.21319149 36.3110638,8.31361702 36.0455319,8.31361702 C35.6659574,8.31361702 35.906383,6.90978723 35.906383,5.87276596 C35.906383,5.41744681 35.9697872,4.40553191 35.2106383,4.40553191 C34.2497872,4.40553191 33.313617,7.11191489 33.0229787,7.11191489 C32.7446809,7.11191489 33.4276596,4.50680851 32.226383,4.50680851 C31.7374468,4.50680851 31.0110638,5.17021277 30.2187234,5.51106383 L30.2234043,5.51276596 C29.9314894,4.94 29.4076596,4.64595745 28.9,4.64595745 C28.5331915,4.64595745 28.2548936,4.92425532 28.2548936,5.21489362 C28.2548936,5.60680851 28.5714894,6.13829787 29.3046809,6.13829787 C29.5068085,6.13829787 29.7029787,6.10553191 29.8897872,6.05276596 L29.8974468,6.05574468 C29.9642553,6.27106383 30.0004255,6.48638298 30.0004255,6.65659574 C30.0004255,7.32680851 29.5451064,8.19957447 28.6723404,8.19957447 C27.9893617,8.19957447 27.3825532,7.4787234 27.3825532,6.59361702 C27.3825532,5.15148936 28.2548936,4.91148936 28.2553191,4.62042553 C28.2548936,4.49404255 28.1540426,4.46851064 27.9642553,4.46851064 C26.9885106,4.46893617 25.6480851,5.27531915 24.6412766,6.20468085 L24.6374468,6.20382979 C24.6034043,6.14297872 24.5655319,6.08297872 24.5242553,6.02425532 C23.5506383,4.63319149 23.9297872,4.32978723 23.6770213,4.32978723 C23.3608511,4.32978723 21.9442553,8.18723404 21.3876596,8.18723404 C20.6544681,8.18723404 21.9948936,4.46893617 20.5659574,4.46893617 C19.4404255,4.46893617 18.7953191,7.39021277 18.3651064,7.39021277 C17.9480851,7.39021277 18.7825532,4.46893617 17.5685106,4.46893617 C16.6961702,4.46893617 15.3931915,7.95914894 14.8242553,7.95914894 C14.3438298,7.95914894 15.2668085,4.51957447 14.1540426,4.51957447 C13.0914894,4.51957447 12.2570213,7.21319149 11.9914894,7.21319149 C11.7693617,7.21319149 11.8170213,6.37148936 11.8255319,4.82765957 L11.8293617,4.81659574 C12.7004255,3.88085106 13.306383,2.59787234 13.3068085,1.38297872 C13.3068085,0.814042553 13.0285106,0.37106383 12.4970213,0.371489362 C11.46,0.37106383 10.8531915,2.01531915 10.8531915,3.82382979 C10.8531915,4.21829787 10.8621277,4.72170213 10.8740426,5.2387234 L10.8710638,5.24510638 C10.3897872,5.59914894 9.93617021,5.78425532 9.67702128,5.78425532 C9.60510638,5.78425532 9.52595745,5.78468085 9.44255319,5.78510638 L9.44340426,5.78553191 C9.20425532,5.00638298 8.5612766,4.6587234 8.09617021,4.6587234 C7.7293617,4.6587234 7.43829787,5 7.43829787,5.29106383 C7.4387234,5.72 7.81914894,6.17361702 9.01957447,6.2 L9.02255319,6.20297872 C9.05404255,6.3587234 9.06978723,6.51191489 9.06978723,6.64382979 C9.06978723,7.31446809 8.57702128,8.22468085 7.70425532,8.22468085 C6.94510638,8.22468085 6.37617021,7.36510638 6.37617021,6.41659574 C6.37617021,5.20212766 7.18553191,4.82297872 7.18553191,4.73446809 C7.18553191,4.68382979 7.17319149,4.63319149 7.14765957,4.63319149 C6.34468085,4.63319149 5.03489362,5.51744681 3.80085106,6.80085106 L3.7987234,6.8 C3.65914894,5.73829787 3.49276596,4.48297872 3.49276596,3.01446809 C3.49276596,0.889787234 3.88468085,0.611489362 3.88468085,0.333191489 C3.88468085,0.206808511 3.84680851,0.156170213 3.63191489,0.156170213 C3.15148936,0.156170213 0.04,1.56 0.04,4.67106383 C0.04,7.06382979 1.35659574,8.12723404 2.20468085,8.77319149 C1.29531915,10.1234043 0.647234043,11.6076596 0.647234043,12.9042553 C0.647234043,13.6378723 0.938297872,14.3587234 1.48170213,14.3587234 C2.34170213,14.3587234 3.98595745,12.5374468 3.98595745,8.80680851 C3.98595745,8.31659574 3.92255319,7.75829787 3.8412766,7.12680851 L3.84170213,7.12425532 C4.57914894,6.34765957 5.36893617,5.70638298 6.06,5.29106383 L6.06,5.29106383 Z M72.2174468,5.66893617 L72.2191489,5.66425532 C72.0582979,5.35446809 71.8310638,5.11404255 71.5578723,5.11404255 C71.4314894,5.11361702 71.3174468,5.24042553 71.3174468,5.3412766 C71.3174468,5.56893617 71.5323404,5.70808511 71.8612766,5.70808511 C71.9804255,5.70808511 72.0991489,5.69404255 72.2174468,5.66893617 L72.2174468,5.66893617 Z M44.86,8.51957447 C45.0191489,8.29446809 45.1851064,8.07361702 45.3557447,7.8587234 L45.3646809,7.83914894 C45.1574468,6.73574468 44.9361702,5.67191489 44.9361702,4.88595745 C44.9361702,2.64765957 45.9097872,1.05404255 45.9097872,0.712765957 C45.9102128,0.485106383 45.9480851,0.447234043 45.7838298,0.447234043 C45.6697872,0.447234043 43.4438298,1.39574468 43.4438298,4.74723404 C43.4438298,6.09787234 44.0731915,7.75148936 44.86,8.51957447 L44.86,8.51957447 Z M44.6846809,8.77361702 C44.3710638,8.53489362 44.0791489,8.12510638 43.633617,7.82 C43.2578723,7.56297872 42.267234,7.84170213 41.4076596,7.99787234 L41.4059574,7.99914894 C41.3314894,8.49446809 41.1608511,8.98382979 40.9906383,8.98382979 C40.8791489,8.98382979 40.8302128,8.59191489 40.6910638,8.13617021 L40.6825532,8.1306383 C40.2987234,8.19914894 39.9731915,8.25021277 39.7761702,8.25021277 C39.1821277,8.25021277 37.8161702,7.98468085 37.8161702,7.08680851 C37.8161702,6.58085106 38.3851064,6.3787234 38.9289362,6.3787234 C39.5485106,6.37829787 40.5353191,6.8212766 40.7753191,7.30170213 C40.8387234,6.44170213 40.2191489,5.97361702 40.2191489,5.83446809 C40.2191489,5.69574468 40.8893617,5.44255319 40.9523404,5.44255319 C41.2178723,5.44255319 41.4455319,6.65659574 41.4455319,7.51659574 C41.4455319,7.55744681 41.4446809,7.59957447 41.4425532,7.64255319 L41.4429787,7.64297872 C42.1234043,7.50723404 42.8557447,7.36340426 43.3302128,7.42808511 C42.8748936,6.78340426 42.5331915,5.89787234 42.5331915,4.67106383 C42.5331915,1.56 45.6319149,0.156170213 46.1123404,0.156170213 C46.327234,0.156170213 46.3778723,0.206808511 46.3778723,0.333191489 C46.3778723,0.611489362 45.9731915,0.889787234 45.9731915,3.01446809 C45.9731915,4.48425532 46.1395745,5.74 46.2791489,6.80255319 C47.5140426,5.51829787 48.8251064,4.63319149 49.6280851,4.63319149 C49.6531915,4.63319149 49.6659574,4.68382979 49.6659574,4.73446809 C49.6659574,4.82297872 48.8565957,5.20212766 48.8565957,6.41659574 C48.8565957,7.36510638 49.4382979,8.22468085 50.1974468,8.22468085 C51.0574468,8.22468085 51.5506383,7.31446809 51.5506383,6.64425532 C51.5506383,6.51148936 51.5344681,6.35744681 51.5025532,6.20085106 L51.5017021,6.2 C50.3,6.17361702 49.9191489,5.72042553 49.9191489,5.29106383 C49.9191489,5 50.2097872,4.6587234 50.5893617,4.6587234 C51.0442553,4.6587234 51.6851064,5.00595745 51.9238298,5.78510638 C52.0068085,5.78468085 52.0859574,5.78425532 52.1574468,5.78425532 C52.4174468,5.78425532 52.8714894,5.5987234 53.3531915,5.24382979 L53.3544681,5.24085106 C53.3425532,4.72297872 53.333617,4.2187234 53.333617,3.82382979 C53.333617,2.01531915 53.9408511,0.371489362 54.9778723,0.37106383 C55.5089362,0.371489362 55.787234,0.814042553 55.787234,1.38297872 C55.787234,2.59787234 55.1812766,3.88085106 54.3097872,4.81702128 L54.306383,4.82595745 C54.2978723,6.37106383 54.2497872,7.21319149 54.4719149,7.21319149 C54.7374468,7.21319149 55.5719149,4.51957447 56.6344681,4.51957447 C57.7476596,4.51957447 56.8370213,7.95957447 57.3046809,7.95957447 C57.8740426,7.95914894 59.1765957,4.46893617 60.0493617,4.46893617 C61.2634043,4.46893617 60.4285106,7.39021277 60.8459574,7.39021277 C61.2757447,7.39021277 61.9208511,4.46893617 63.046383,4.46893617 C64.4753191,4.46893617 63.1348936,8.18723404 63.8685106,8.18723404 C64.4251064,8.18723404 65.8412766,4.32978723 66.1574468,4.32978723 C66.4106383,4.32978723 66.0310638,4.63319149 67.0051064,6.02425532 C67.046383,6.08255319 67.0838298,6.14297872 67.1178723,6.20382979 L67.1225532,6.20468085 C68.1310638,5.27531915 69.4744681,4.46893617 70.4574468,4.46893617 C70.6344681,4.46893617 70.7357447,4.49404255 70.7357447,4.62085106 C70.7357447,4.91148936 69.8629787,5.15191489 69.8629787,6.59361702 C69.8629787,7.4787234 70.4702128,8.19957447 71.1531915,8.19957447 C72.0255319,8.19957447 72.4808511,7.32680851 72.4808511,6.65659574 C72.4808511,6.48638298 72.4446809,6.27148936 72.3782979,6.05659574 L72.372766,6.05361702 C72.1885106,6.10595745 71.9961702,6.13829787 71.7978723,6.13829787 C71.0519149,6.13829787 70.7357447,5.60680851 70.7357447,5.21489362 C70.7357447,4.92425532 71.013617,4.64595745 71.3808511,4.64595745 C71.8868085,4.64595745 72.4093617,4.93829787 72.7017021,5.50851064 L72.7042553,5.50893617 C73.4944681,5.16765957 74.2191489,4.50680851 74.7068085,4.50680851 C75.9080851,4.50680851 75.2251064,7.11191489 75.5034043,7.11191489 C75.807234,7.11191489 76.7302128,4.40553191 77.6914894,4.40553191 C78.4502128,4.40553191 78.3868085,5.41744681 78.3868085,5.87276596 C78.3868085,6.90978723 78.1468085,8.31361702 78.5259574,8.31361702 C78.7914894,8.31361702 79.4621277,7.21319149 79.5506383,7.21319149 C79.6387234,7.21319149 79.6514894,7.23829787 79.6514894,7.35234043 C79.6514894,7.56723404 78.5638298,9.1987234 77.9693617,9.1987234 C77.1097872,9.1987234 77.1855319,7.88340426 77.1855319,7.46595745 C77.1855319,7.13744681 77.2868085,5.44255319 77.033617,5.44255319 C76.8442553,5.44255319 76.3506383,6.54297872 75.8953191,7.35234043 C75.4276596,8.17404255 75.2,9.09744681 74.7319149,9.09744681 C74.1123404,9.09744681 74.2387234,8.23744681 74.2387234,7.40297872 C74.2387234,6.28978723 74.3778723,5.21489362 74.0238298,5.21489362 C73.8604255,5.21489362 73.4221277,5.60042553 72.8459574,5.87319149 L72.8451064,5.87531915 C72.9034043,6.08085106 72.9361702,6.31234043 72.9361702,6.56808511 C72.9361702,7.27659574 72.5693617,9.09744681 70.8621277,9.09744681 C69.6480851,9.09744681 68.6995745,8.14893617 68.6995745,6.90978723 C68.6995745,5.7587234 69.3446809,5.40468085 69.7110638,5 C69.0821277,5.10468085 68.0514894,5.74638298 67.2553191,6.48340426 L67.2531915,6.4906383 C67.4455319,6.98170213 67.46,7.47106383 67.46,7.64297872 C67.46,8.46510638 66.9417021,9.03446809 66.4102128,9.03446809 C66.0561702,9.03446809 65.7021277,8.80680851 65.7021277,8.35148936 C65.7021277,7.99404255 65.9544681,7.51531915 66.3561702,7.01617021 L66.3565957,7.01191489 C66.153617,6.46297872 65.8676596,6.06255319 65.7148936,6.06255319 C65.3987234,6.06255319 64.4753191,9.03446809 63.3119149,9.03446809 C62.0344681,9.03446809 62.92,5.41744681 62.4897872,5.41744681 C62.072766,5.41744681 60.8459574,9.03446809 60.1378723,9.03446809 C59.1387234,9.03446809 60.0365957,5.48085106 59.593617,5.48042553 C59.0246809,5.48042553 57.7093617,9.03446809 56.8242553,9.03446809 C55.5723404,9.03446809 56.5080851,5.53106383 55.9897872,5.53106383 C55.7114894,5.53106383 55.2561702,6.47957447 54.8259574,7.42808511 C54.4591489,8.18723404 54.2442553,8.98382979 53.8523404,8.98382979 C53.4855319,8.98382979 53.4097872,8.84468085 53.4093617,7.66851064 C53.4097872,7.29531915 53.3851064,6.47361702 53.3638298,5.62468085 L53.3617021,5.62297872 C52.9280851,5.90553191 52.467234,6.09914894 52.0046809,6.1706383 L52.0029787,6.17319149 C52.0131915,6.26255319 52.0182979,6.35659574 52.0182979,6.45446809 C52.0187234,7.30170213 51.6770213,9.08510638 49.9314894,9.08510638 C48.6165957,9.08510638 47.8957447,8.08595745 47.8957447,6.80851064 C47.8957447,6.12553191 48.2242553,5.67021277 48.5404255,5.29106383 C47.8502128,5.70595745 47.0612766,6.34595745 46.3246809,7.12170213 L46.3221277,7.13234043 C46.4034043,7.7612766 46.466383,8.31829787 46.466383,8.80680851 C46.466383,12.5374468 44.8348936,14.3587234 43.9625532,14.3587234 C43.4187234,14.3587234 43.1276596,13.6378723 43.1276596,12.9042553 C43.1276596,11.6076596 43.7757447,10.1238298 44.6846809,8.77361702 L44.6846809,8.77361702 Z M66.4689362,7.36553191 L66.466383,7.36510638 C66.2506383,7.67617021 66.1195745,7.97361702 66.1195745,8.22468085 C66.1195745,8.47787234 66.1702128,8.62978723 66.3221277,8.62978723 C66.4608511,8.62978723 66.5876596,8.45234043 66.5876596,8.21234043 C66.5876596,7.92595745 66.5412766,7.63574468 66.4689362,7.36553191 L66.4689362,7.36553191 Z M54.3068085,4.3106383 L54.3068085,4.3106383 C54.8421277,3.6187234 55.2561702,2.69702128 55.2561702,1.57276596 C55.2561702,1.04170213 55.2182979,0.73787234 54.94,0.73787234 C54.227234,0.73787234 54.2987234,3.37829787 54.3068085,4.3106383 L54.3068085,4.3106383 Z M51.3697872,5.77489362 L51.3714894,5.77148936 C51.2361702,5.45404255 51.0229787,5.20212766 50.7285106,5.20212766 C50.6021277,5.20212766 50.5259574,5.27829787 50.5259574,5.37957447 C50.5259574,5.66042553 50.926383,5.74851064 51.3697872,5.77489362 L51.3697872,5.77489362 Z M45.4276596,8.17957447 L45.4246809,8.17829787 C44.4480851,9.46212766 43.7221277,10.9548936 43.7221277,12.372766 C43.7221277,12.8408511 43.7221277,13.5365957 44.367234,13.5365957 C45.1638298,13.5365957 45.7204255,12.3476596 45.72,10.6910638 C45.72,9.92042553 45.5855319,9.04510638 45.4276596,8.17957447 L45.4276596,8.17957447 Z M40.5668085,7.80510638 L40.5714894,7.79702128 C40.3514894,7.26085106 39.9651064,6.74510638 39.1821277,6.74510638 C38.9668085,6.74510638 38.8531915,6.93489362 38.8531915,7.16255319 C38.8531915,7.58 39.5106383,7.84553191 40.1178723,7.84553191 C40.2446809,7.84553191 40.3970213,7.82978723 40.5668085,7.80510638 L40.5668085,7.80510638 Z M29.7365957,5.66893617 C29.6182979,5.69404255 29.4995745,5.70808511 29.3808511,5.70808511 C29.0391489,5.70808511 28.8370213,5.56893617 28.8370213,5.3412766 C28.8370213,5.24042553 28.9506383,5.11361702 29.0774468,5.11404255 C29.3506383,5.11404255 29.5778723,5.35489362 29.7387234,5.66425532 L29.7365957,5.66893617 L29.7365957,5.66893617 Z M23.9893617,7.3693617 C24.0612766,7.6387234 24.1068085,7.92723404 24.1068085,8.21234043 C24.107234,8.45234043 23.9804255,8.62978723 23.8412766,8.62978723 C23.6897872,8.62978723 23.6391489,8.47787234 23.6391489,8.22468085 C23.6391489,7.97489362 23.7689362,7.6787234 23.9829787,7.3693617 L23.9893617,7.3693617 L23.9893617,7.3693617 Z M11.826383,4.30638298 C11.8182979,3.37021277 11.7480851,0.73787234 12.4591489,0.73787234 C12.7374468,0.73787234 12.7753191,1.04170213 12.7753191,1.57276596 C12.7753191,2.69531915 12.3629787,3.61617021 11.8285106,4.30765957 L11.826383,4.30638298 L11.826383,4.30638298 Z M8.8906383,5.77489362 C8.44680851,5.74893617 8.04553191,5.66085106 8.04553191,5.37957447 C8.04553191,5.27829787 8.1212766,5.20255319 8.24808511,5.20212766 C8.54297872,5.20212766 8.75659574,5.45489362 8.89148936,5.77361702 L8.8906383,5.77489362 L8.8906383,5.77489362 Z M2.88255319,7.85021277 C2.70978723,8.06723404 2.54170213,8.2906383 2.38085106,8.51829787 L2.38,8.51829787 C1.59404255,7.74978723 0.963404255,6.09702128 0.963404255,4.74680851 C0.963404255,1.39574468 3.1893617,0.447234043 3.30297872,0.447234043 C3.46765957,0.447234043 3.41659574,0.485106383 3.41659574,0.712765957 C3.41659574,1.05404255 2.45574468,2.64765957 2.45574468,4.88595745 C2.45574468,5.67191489 2.67702128,6.73617021 2.88425532,7.83957447 L2.88255319,7.85021277 L2.88255319,7.85021277 Z M2.94680851,8.17659574 C3.10468085,9.04340426 3.23957447,9.91957447 3.23957447,10.6910638 C3.23957447,12.3476596 2.68340426,13.5365957 1.88638298,13.5365957 C1.24170213,13.5365957 1.24170213,12.8408511 1.24170213,12.3731915 C1.24170213,10.9540426 1.96851064,9.46042553 2.94595745,8.17617021 L2.94680851,8.17659574 L2.94680851,8.17659574 Z" id="Fill-2"></path>
            </g>
        </g>
    </g>
</svg>
