<?xml version="1.0" encoding="UTF-8"?>
<svg width="84px" height="54px" viewBox="0 0 84 54" version="1.1" xmlns="http://www.w3.org/2000/svg" xmlns:xlink="http://www.w3.org/1999/xlink">
    <!-- Generator: Sketch 48 (47235) - http://www.bohemiancoding.com/sketch -->
    <title>logos/mccormick</title>
    <desc>Created with Sketch.</desc>
    <defs></defs>
    <g id="Symbols" stroke="none" stroke-width="1" fill="none" fill-rule="evenodd">
        <g id="logos/mccormick">
            <g id="McCormick" transform="translate(2.000000, 2.000000)">
                <path d="M26.9754545,8.24454545 L30.6604545,5.03863636 L33.7304545,7.60363636 L36.6790909,5.03863636 L39.6272727,7.47590909 L42.4522727,5.03863636 L45.5222727,7.60363636 L45.5222727,14.015 L41.4686364,17.3504545 L41.4686364,9.27090909 C41.4686364,9.27090909 41.3472727,8.11681818 39.6272727,8.11681818 L39.6272727,26.7118182 L35.5736364,26.7118182 L35.5736364,9.27090909 C35.5736364,9.27090909 35.5736364,8.11681818 33.8536364,8.11681818 L33.8536364,26.7118182 L29.6777273,26.7118182 L29.6777273,10.1686364 C29.6777273,10.1686364 29.8,7.86045455 26.9754545,8.24454545" id="Fill-2" fill="#D53540"></path>
                <path d="M47.9804545,12.8613636 L41.4686364,18.1186364 L41.4686364,23.25 L45.6454545,26.8404545 L51.0504545,22.4804545 L50.8040909,22.2236364 C50.8040909,22.2236364 49.33,23.7622727 48.1036364,23.5063636 C46.1381818,23.25 45.5222727,21.9672727 45.5222727,20.0431818 L45.5222727,15.6836364 C45.5222727,15.6836364 46.9986364,17.3504545 48.1036364,17.3504545 C49.085,17.3504545 50.0668182,16.4527273 51.0504545,15.4263636 L47.9804545,12.8613636" id="Fill-3" fill="#004D8D"></path>
                <path d="M24.6931818,1.50681818 L24.3913636,1.575 L24.3413636,1.88 C24.3227273,1.995 22.495,13.5727273 24.3386364,30.2222727 L24.3754545,30.5504545 L24.6977273,30.6190909 C39.0854545,33.6818182 52.9727273,30.6481818 53.1122727,30.6172727 L53.4118182,30.5504545 L53.4618182,30.245 C53.4813636,30.1309091 55.3236364,18.5463636 53.4795455,1.89590909 L53.4440909,1.56863636 L53.1213636,1.5 C38.7327273,-1.56318182 24.8322727,1.47590909 24.6931818,1.50681818 L24.6931818,1.50681818 Z M52.6036364,2.335 C53.1854545,7.70727273 53.3854545,12.5445455 53.3854545,16.6104545 C53.3854545,23.7977273 52.7763636,28.5868182 52.6072727,29.7890909 C50.5240909,30.2059091 38.1118182,32.4468182 25.2145455,29.7840909 C24.6304545,24.3831818 24.4290909,19.5236364 24.4290909,15.445 C24.4290909,8.29545455 25.0295455,3.53363636 25.1990909,2.335 C27.2822727,1.91772727 39.7059091,-0.328636364 52.6036364,2.335 L52.6036364,2.335 Z" id="Fill-4" fill="#004D8D"></path>
                <polyline id="Fill-5" fill="#004D8D" points="10.065 48.5513636 10.0145455 35.6722727 7.06363636 35.6722727 5.00090909 40.905 3.01090909 35.6722727 0.0604545455 35.6722727 0.00863636364 48.5513636 2.16409091 48.5772727 2.16409091 40.8540909 4.52454545 46.4731818 5.55 46.4731818 7.91090909 40.8540909 7.91090909 48.5772727 10.065 48.5513636"></polyline>
                <polyline id="Fill-6" fill="#004D8D" points="55.3040909 48.5513636 55.2522727 35.6722727 52.3018182 35.6722727 50.24 40.905 48.2477273 35.6722727 45.2972727 35.6722727 45.2472727 48.5513636 47.4022727 48.5772727 47.4022727 40.8540909 49.7618182 46.4731818 50.7881818 46.4731818 53.1477273 40.8540909 53.1477273 48.5772727 55.3040909 48.5513636"></polyline>
                <polyline id="Fill-7" fill="#004D8D" points="59.2363636 35.6722727 56.7090909 35.6722727 56.6590909 48.5513636 59.2363636 48.5772727 59.2363636 35.6722727"></polyline>
                <path d="M16.3709091,39.17 L16.3709091,41.5404545 C16.3709091,41.5404545 15.1459091,40.8113636 14.2090909,41.2022727 C13.4013636,41.5390909 12.8540909,42.6863636 12.8540909,44.0145455 C12.8540909,45.3436364 13.6618182,46.62 14.6,46.62 C15.5372727,46.62 16.4490909,46.0727273 16.4490909,46.0727273 L17.23,47.0881818 C17.23,47.0881818 16.0581818,48.6259091 14.2090909,48.6513636 C12.2295455,48.6768182 10.6922727,46.6713636 10.6922727,44.0927273 C10.6922727,41.5145455 12.49,38.5968182 16.3709091,39.17" id="Fill-8" fill="#004D8D"></path>
                <path d="M25.3463636,35.5740909 L25.3463636,38.4963636 C25.3463636,38.4963636 23.79,36.8681818 22.0190909,37.4968182 C20.8740909,37.9027273 19.9918182,39.8959091 20.1345455,42.3018182 C20.2440909,44.1427273 21.5463636,46.4072727 22.8472727,46.4072727 C24.1495455,46.4072727 25.2177273,45.3790909 25.2177273,45.3790909 L26.1318182,46.3786364 C26.1318182,46.3786364 25.0154545,48.6863636 22.4477273,48.7204545 C19.6995455,48.7572727 17.4613636,45.9904545 17.4613636,42.4095455 C17.4613636,38.8290909 19.8772727,34.1268182 25.3463636,35.5740909" id="Fill-9" fill="#004D8D"></path>
                <path d="M67.9581818,35.5740909 L67.9581818,38.4963636 C67.9581818,38.4963636 66.4013636,36.8681818 64.6304545,37.4968182 C63.4845455,37.9027273 62.6027273,39.8959091 62.7459091,42.3018182 C62.8545455,44.1427273 64.1577273,46.4072727 65.4586364,46.4072727 C66.76,46.4072727 67.8290909,45.3790909 67.8290909,45.3790909 L68.7431818,46.3786364 C68.7431818,46.3786364 67.6259091,48.6863636 65.0595455,48.7204545 C62.31,48.7572727 60.0718182,45.9904545 60.0718182,42.4095455 C60.0718182,38.8290909 62.4890909,34.1268182 67.9581818,35.5740909" id="Fill-10" fill="#004D8D"></path>
                <path d="M32.5863636,42.1240909 C32.5863636,44.7336364 31.6145455,46.8481818 30.4159091,46.8481818 C29.2181818,46.8481818 28.245,44.7336364 28.245,42.1240909 C28.245,39.5154545 29.2181818,37.4004545 30.4159091,37.4004545 C31.6145455,37.4004545 32.5863636,39.5154545 32.5863636,42.1240909 L32.5863636,42.1240909 Z M30.4159091,35.47 C27.8613636,35.47 25.7890909,38.4486364 25.7890909,42.1240909 C25.7890909,45.7995455 27.8613636,48.7786364 30.4159091,48.7786364 C32.97,48.7786364 35.0427273,45.7995455 35.0427273,42.1240909 C35.0427273,38.4486364 32.97,35.47 30.4159091,35.47 L30.4159091,35.47 Z" id="Fill-11" fill="#004D8D"></path>
                <path d="M40.1259091,35.57 C44.8104545,35.57 44.325,41.8527273 41.84,42.7095455 L43.9536364,48.4786364 L41.3545455,48.4786364 L39.2690909,43.2236364 L38.2413636,43.2236364 L38.2413636,48.6786364 L35.6990909,48.6786364 L35.6990909,35.57 L40.1259091,35.57 L40.1259091,35.57 Z M38.3840909,37.9118182 L38.3840909,40.7109091 C38.3840909,40.7109091 41.0404545,41.31 41.0404545,39.3681818 C41.0404545,37.4263636 38.8122727,37.8831818 38.3840909,37.9118182 L38.3840909,37.9118182 Z" id="Fill-12" fill="#004D8D"></path>
                <path d="M74.4513636,40.2118182 C75.2459091,37.9081818 76.6236364,37.9877273 76.9413636,38.0145455 L76.8095455,35.7363636 C76.8095455,35.7363636 75.5386364,35.3131818 74.5590909,36.4781818 C73.8213636,37.3527273 72.5040909,39.0209091 71.8936364,39.7959091 L71.8936364,35.6731818 L69.3663636,35.6731818 L69.3145455,48.5522727 L71.8936364,48.5772727 L71.8936364,44.5736364 L72.8895455,43.1772727 L75.2990909,48.4722727 L78.1059091,48.4722727 L74.4513636,40.2118182" id="Fill-13" fill="#004D8D"></path>
                <polyline id="Fill-14" fill="#004D8D" points="78.7409091 34.9340909 78.9445455 35.8672727 79.8940909 35.7722727 79.0709091 36.2540909 79.455 37.1281818 78.7409091 36.4940909 78.0286364 37.1281818 78.4109091 36.2540909 77.5877273 35.7722727 78.5377273 35.8672727 78.7409091 34.9340909"></polyline>
            </g>
        </g>
    </g>
</svg>
