<?xml version="1.0" encoding="UTF-8"?>
<svg width="84px" height="54px" viewBox="0 0 84 54" version="1.1" xmlns="http://www.w3.org/2000/svg" xmlns:xlink="http://www.w3.org/1999/xlink">
    <!-- Generator: Sketch 48 (47235) - http://www.bohemiancoding.com/sketch -->
    <title>logos/nike</title>
    <desc>Created with Sketch.</desc>
    <defs>
        <polygon id="path-1" points="79.9202334 41.781874 0.00737327189 41.781874 0.00737327189 0.093640553 79.9202334 0.093640553 79.9202334 41.781874"></polygon>
    </defs>
    <g id="Symbols" stroke="none" stroke-width="1" fill="none" fill-rule="evenodd">
        <g id="logos/nike">
            <g id="NIKE_logo" transform="translate(2.000000, 6.000000)">
                <path d="M13.3960061,27.4600307 C12.9432873,27.4600307 12.6070661,27.1292166 12.6070661,26.681659 C12.6070661,26.2342243 12.9407066,25.9005837 13.3960061,25.9005837 C13.8461444,25.9005837 14.1850691,26.2395084 14.1850691,26.681659 C14.1850691,27.1212289 13.8435637,27.4600307 13.3960061,27.4600307 L13.3960061,27.4600307 Z M13.3960061,25.5882028 C12.7606759,25.5882028 12.2628571,26.0330568 12.2628571,26.681659 C12.2628571,27.330384 12.7632565,27.7725346 13.3960061,27.7725346 C14.0288786,27.7725346 14.529278,27.3276805 14.529278,26.681659 C14.529278,26.0330568 14.0314593,25.5882028 13.3960061,25.5882028 L13.3960061,25.5882028 Z" id="Fill-1" fill="#1A1919"></path>
                <polyline id="Fill-2" fill="#1A1919" points="24.421874 21.7640553 18.9056836 21.7640553 19.5327803 12.176467 15.950722 21.7640553 10.82851 21.7640553 18.9556989 0.093640553 24.4061444 0.093640553 23.7768356 9.81247312 27.426851 0.093640553 32.5489401 0.093640553 24.421874 21.7640553"></polyline>
                <g id="Group-6">
                    <mask id="mask-2" fill="white">
                        <use xlink:href="#path-1"></use>
                    </mask>
                    <g id="Clip-4"></g>
                    <polyline id="Fill-3" fill="#1A1919" mask="url(#mask-2)" points="25.0869432 21.7640553 33.2141321 0.093640553 38.3362212 0.093640553 30.2090323 21.7640553 25.0869432 21.7640553"></polyline>
                    <path d="M10.2379109,14.2943164 C3.08006144,22.6998464 -3.67176651,33.8841167 2.29210445,39.0347158 C8.0709063,44.0255607 15.2943779,41.0704762 20.2194777,39.1004608 C25.1445776,37.1303226 79.5832873,13.4898925 79.5832873,13.4898925 C80.1087558,13.2272811 80.0101997,12.8989247 79.3534869,13.0631029 C79.0884178,13.1293395 20.0881106,29.118894 20.0881106,29.118894 C12.6019048,31.2202765 4.06513057,26.6398771 10.2379109,14.2943164" id="Fill-5" fill="#1A1919" mask="url(#mask-2)"></path>
                </g>
                <path d="M13.3987097,26.5678648 L13.2292473,26.5678648 L13.2292473,26.2950538 L13.3722888,26.2950538 C13.4596621,26.2950538 13.5601843,26.305745 13.5601843,26.4195392 C13.5601843,26.541321 13.5019355,26.5678648 13.3987097,26.5678648 L13.3987097,26.5678648 Z M13.5893088,26.7584639 C13.7482028,26.7504762 13.8726882,26.66851 13.8726882,26.4486636 C13.8726882,26.1654071 13.6873733,26.0938863 13.377573,26.0938863 L12.9327189,26.0938863 L12.9327189,27.2694316 L13.2292473,27.2694316 L13.2292473,26.7690323 L13.2795084,26.7690323 L13.549616,27.2694316 L13.8911214,27.2694316 L13.5893088,26.7584639 L13.5893088,26.7584639 Z" id="Fill-7" fill="#1A1919"></path>
                <path d="M64.8860215,1.89935484 C64.4333026,1.89935484 64.0970814,1.56854071 64.0970814,1.1209831 C64.0970814,0.673548387 64.4305991,0.339907834 64.8860215,0.339907834 C65.3361598,0.339907834 65.6750845,0.678832565 65.6750845,1.1209831 C65.6750845,1.560553 65.3335791,1.89935484 64.8860215,1.89935484 L64.8860215,1.89935484 Z M64.8860215,0.0275268817 C64.2506912,0.0275268817 63.7528725,0.472380952 63.7528725,1.1209831 C63.7528725,1.76970814 64.2532719,2.21185868 64.8860215,2.21185868 C65.518894,2.21185868 66.0192934,1.76700461 66.0192934,1.1209831 C66.0192934,0.472380952 65.5214747,0.0275268817 64.8860215,0.0275268817 L64.8860215,0.0275268817 Z" id="Fill-8" fill="#1A1919"></path>
                <path d="M64.888725,1.00718894 L64.7192627,1.00718894 L64.7192627,0.73437788 L64.8623041,0.73437788 C64.9496774,0.73437788 65.0501997,0.745069124 65.0501997,0.858863287 C65.0501997,0.980645161 64.9919508,1.00718894 64.888725,1.00718894 L64.888725,1.00718894 Z M65.0793241,1.19778802 C65.2382181,1.18980031 65.3625806,1.1078341 65.3625806,0.887987711 C65.3625806,0.604731183 65.1773886,0.533210445 64.8675883,0.533210445 L64.4227343,0.533210445 L64.4227343,1.70875576 L64.7192627,1.70875576 L64.7192627,1.20835637 L64.7696467,1.20835637 L65.0396313,1.70875576 L65.3811367,1.70875576 L65.0793241,1.19778802 L65.0793241,1.19778802 Z" id="Fill-9" fill="#1A1919"></path>
                <path d="M45.0011674,20.3193856 L44.6729339,9.02451613 L52.4173272,0.521658986 L45.0011674,20.3193856 L45.0011674,20.3193856 Z M61.5111521,3.7053149 L62.8874962,0.093640553 L47.2586175,0.093640553 L41.8916129,6.59477727 L44.3691551,0.093640553 L39.1814439,0.093640553 L31.12,21.7640553 L36.2420891,21.7640553 L39.6836866,12.7018126 L39.9195084,21.7640553 L55.6360061,21.7300154 L57.1321659,17.5612903 L51.1563748,17.5612903 L53.1196313,12.3078341 L58.0447312,12.3078341 L59.5599386,8.26924731 L54.6348387,8.26924731 L56.323318,3.7053149 L61.5111521,3.7053149 L61.5111521,3.7053149 Z" id="Fill-10" fill="#1A1919"></path>
            </g>
        </g>
    </g>
</svg>
