<svg width="84" height="54" viewBox="0 0 84 54" fill="none" xmlns="http://www.w3.org/2000/svg">
<title>johnson and johnson</title>
<path d="M8.02 25.135C7.704 25.515 7.363 25.97 7.363 26.653C7.363 27.93 8.096 28.929 9.411 28.929C11.157 28.929 11.498 27.146 11.498 26.299C11.498 26.199 11.492 26.105 11.482 26.015C11.946 25.944 12.407 25.75 12.842 25.467L12.843 25.468C12.865 26.318 12.889 27.139 12.889 27.513C12.877 28.689 12.965 28.828 13.331 28.828C13.724 28.828 13.939 28.031 14.306 27.272C14.736 26.324 15.191 25.375 15.469 25.375C15.988 25.375 15.051 28.878 16.304 28.878C17.189 28.878 18.504 25.324 19.074 25.324C19.516 25.324 18.618 28.878 19.604 28.878C20.325 28.878 21.552 25.261 21.969 25.261C22.399 25.261 21.514 28.878 22.791 28.878C23.942 28.878 24.878 25.907 25.194 25.907C25.346 25.907 25.631 26.304 25.834 26.85L25.832 26.864C25.432 27.362 25.182 27.839 25.182 28.195C25.182 28.651 25.536 28.878 25.89 28.878C26.42 28.878 26.94 28.309 26.94 27.487C26.94 27.315 26.925 26.824 26.732 26.333L26.733 26.328C27.528 25.591 28.556 24.948 29.178 24.844C28.824 25.249 28.179 25.603 28.179 26.754C28.179 27.993 29.127 28.941 30.342 28.941C32.049 28.941 32.416 27.121 32.416 26.412C32.416 26.154 32.383 25.922 32.323 25.715L32.322 25.717C32.902 25.444 33.34 25.059 33.503 25.059C33.857 25.059 33.718 26.134 33.718 27.247C33.718 28.081 33.592 28.941 34.211 28.941C34.68 28.941 34.907 28.018 35.375 27.196C35.83 26.387 36.323 25.286 36.513 25.286C36.766 25.286 36.665 26.981 36.665 27.31C36.665 27.727 36.589 29.043 37.449 29.043C38.031 29.043 39.119 27.411 39.119 27.196C39.119 27.083 39.119 27.057 39.029 27.057C38.941 27.057 38.271 28.157 38.006 28.157C37.626 28.157 37.866 26.754 37.866 25.717C37.866 25.261 37.93 24.25 37.171 24.25C36.21 24.25 35.274 26.956 34.983 26.956C34.705 26.956 35.388 24.351 34.186 24.351C33.697 24.351 32.971 25.014 32.179 25.355L32.183 25.357C31.891 24.784 31.368 24.49 30.86 24.49C30.493 24.49 30.215 24.768 30.215 25.059C30.215 25.451 30.531 25.982 31.265 25.982C31.467 25.982 31.663 25.95 31.85 25.897L31.857 25.9C31.924 26.115 31.96 26.33 31.96 26.5C31.96 27.17 31.505 28.044 30.632 28.044C29.949 28.044 29.342 27.323 29.342 26.438C29.342 24.995 30.215 24.755 30.215 24.464C30.215 24.338 30.114 24.313 29.925 24.313C28.949 24.313 27.608 25.119 26.601 26.049L26.597 26.048C26.5624 25.9861 26.5247 25.926 26.484 25.868C25.511 24.478 25.89 24.174 25.637 24.174C25.321 24.174 23.904 28.031 23.347 28.031C22.614 28.031 23.955 24.313 22.526 24.313C21.4 24.313 20.756 27.234 20.326 27.234C19.908 27.234 20.743 24.313 19.529 24.313C18.656 24.313 17.353 27.803 16.784 27.803C16.304 27.803 17.227 24.363 16.114 24.363C15.051 24.363 14.217 27.057 13.951 27.057C13.729 27.057 13.777 26.215 13.786 24.672L13.789 24.661C14.66 23.725 15.266 22.441 15.267 21.227C15.267 20.658 14.989 20.215 14.457 20.215C13.42 20.215 12.813 21.859 12.813 23.668C12.813 24.062 12.823 24.566 12.834 25.083L12.831 25.089C12.35 25.443 11.896 25.629 11.637 25.629H11.403C11.164 24.85 10.521 24.503 10.056 24.503C9.689 24.503 9.398 24.844 9.398 25.135C9.398 25.564 9.779 26.018 10.98 26.044L10.983 26.047C11.014 26.203 11.03 26.356 11.03 26.487C11.03 27.158 10.537 28.069 9.664 28.069C8.905 28.069 8.336 27.209 8.336 26.261C8.336 25.046 9.146 24.667 9.146 24.578C9.146 24.528 9.133 24.478 9.108 24.478C8.305 24.478 6.995 25.361 5.761 26.645L5.759 26.644C5.619 25.582 5.453 24.327 5.453 22.858C5.453 20.734 5.845 20.455 5.845 20.178C5.845 20.051 5.807 20 5.592 20C5.112 20 2 21.404 2 24.515C2 26.908 3.317 27.971 4.165 28.617C3.255 29.967 2.607 31.452 2.607 32.748C2.607 33.482 2.898 34.203 3.442 34.203C4.302 34.203 5.946 32.381 5.946 28.651C5.946 28.161 5.883 27.602 5.801 26.971V26.968C6.539 26.192 7.329 25.55 8.02 25.135V25.135ZM74.177 25.513L74.179 25.508C74.019 25.198 73.791 24.958 73.518 24.958C73.391 24.958 73.278 25.084 73.278 25.185C73.278 25.413 73.492 25.552 73.821 25.552C73.941 25.552 74.059 25.538 74.177 25.512V25.513ZM46.82 28.363C46.98 28.138 47.145 27.918 47.316 27.703L47.325 27.683C47.117 26.58 46.896 25.516 46.896 24.73C46.896 22.492 47.87 20.898 47.87 20.557C47.87 20.329 47.908 20.291 47.744 20.291C47.63 20.291 45.404 21.24 45.404 24.591C45.404 25.941 46.034 27.595 46.82 28.364V28.363ZM46.645 28.618C46.331 28.378 46.039 27.969 45.594 27.664C45.218 27.407 44.227 27.686 43.368 27.842L43.366 27.843C43.291 28.338 43.121 28.828 42.951 28.828C42.839 28.828 42.791 28.436 42.651 27.98L42.643 27.975C42.259 28.043 41.933 28.095 41.736 28.095C41.142 28.095 39.776 27.829 39.776 26.931C39.776 26.425 40.346 26.223 40.889 26.223C41.509 26.223 42.495 26.665 42.735 27.146C42.799 26.286 42.179 25.818 42.179 25.678C42.179 25.54 42.849 25.287 42.912 25.287C43.178 25.287 43.406 26.501 43.406 27.361L43.403 27.487C44.083 27.351 44.816 27.207 45.29 27.272C44.835 26.627 44.493 25.742 44.493 24.515C44.493 21.404 47.592 20 48.073 20C48.287 20 48.338 20.05 48.338 20.177C48.338 20.455 47.933 20.734 47.933 22.858C47.933 24.328 48.1 25.584 48.239 26.647C49.474 25.362 50.785 24.477 51.589 24.477C51.613 24.477 51.626 24.527 51.626 24.578C51.626 24.667 50.816 25.046 50.816 26.261C50.816 27.209 51.398 28.069 52.157 28.069C53.017 28.069 53.511 27.159 53.511 26.489C53.511 26.355 53.494 26.201 53.463 26.045L53.462 26.044C52.26 26.018 51.879 25.564 51.879 25.135C51.879 24.844 52.169 24.503 52.549 24.503C53.004 24.503 53.645 24.85 53.884 25.629H54.117C54.377 25.629 54.831 25.443 55.313 25.088L55.314 25.085C55.3023 24.6128 55.2956 24.1404 55.294 23.668C55.294 21.859 55.901 20.215 56.938 20.215C57.468 20.215 57.748 20.658 57.748 21.227C57.748 22.442 57.141 23.725 56.27 24.661L56.266 24.67C56.258 26.215 56.21 27.057 56.432 27.057C56.697 27.057 57.532 24.364 58.594 24.364C59.708 24.364 58.797 27.804 59.264 27.804C59.834 27.804 61.137 24.313 62.009 24.313C63.223 24.313 62.389 27.234 62.806 27.234C63.236 27.234 63.881 24.313 65.006 24.313C66.436 24.313 65.095 28.031 65.829 28.031C66.385 28.031 67.801 24.174 68.117 24.174C68.371 24.174 67.991 24.477 68.965 25.868C69.006 25.927 69.044 25.987 69.078 26.048H69.083C70.091 25.119 71.434 24.313 72.417 24.313C72.594 24.313 72.696 24.338 72.696 24.465C72.696 24.755 71.823 24.995 71.823 26.438C71.823 27.323 72.43 28.044 73.113 28.044C73.986 28.044 74.441 27.171 74.441 26.501C74.441 26.331 74.405 26.115 74.338 25.901L74.333 25.898C74.1461 25.9525 73.9526 25.9808 73.758 25.982C73.012 25.982 72.696 25.451 72.696 25.059C72.696 24.769 72.974 24.49 73.341 24.49C73.847 24.49 74.369 24.782 74.661 25.353H74.664C75.454 25.012 76.179 24.351 76.667 24.351C77.868 24.351 77.185 26.956 77.463 26.956C77.767 26.956 78.69 24.25 79.651 24.25C80.411 24.25 80.347 25.261 80.347 25.717C80.347 26.754 80.107 28.157 80.486 28.157C80.751 28.157 81.422 27.057 81.511 27.057C81.599 27.057 81.611 27.082 81.611 27.197C81.611 27.411 80.524 29.043 79.929 29.043C79.069 29.043 79.146 27.727 79.146 27.31C79.146 26.981 79.246 25.287 78.994 25.287C78.804 25.287 78.311 26.387 77.855 27.197C77.388 28.018 77.16 28.941 76.692 28.941C76.072 28.941 76.199 28.081 76.199 27.247C76.199 26.134 76.338 25.059 75.984 25.059C75.82 25.059 75.382 25.444 74.806 25.717V25.719C74.863 25.925 74.896 26.156 74.896 26.412C74.896 27.121 74.529 28.942 72.822 28.942C71.608 28.942 70.66 27.992 70.66 26.754C70.66 25.603 71.305 25.249 71.671 24.844C71.042 24.949 70.011 25.59 69.215 26.327L69.213 26.335C69.406 26.825 69.42 27.315 69.42 27.487C69.42 28.309 68.902 28.878 68.37 28.878C68.016 28.878 67.662 28.651 67.662 28.195C67.662 27.838 67.914 27.359 68.316 26.86V26.856C68.114 26.307 67.828 25.906 67.675 25.906C67.359 25.906 66.435 28.878 65.272 28.878C63.994 28.878 64.88 25.261 64.45 25.261C64.033 25.261 62.806 28.878 62.098 28.878C61.098 28.878 61.997 25.325 61.554 25.324C60.984 25.324 59.669 28.878 58.784 28.878C57.532 28.878 58.468 25.375 57.95 25.375C57.671 25.375 57.216 26.324 56.786 27.272C56.419 28.032 56.204 28.828 55.812 28.828C55.446 28.828 55.37 28.688 55.369 27.513C55.369 27.139 55.345 26.318 55.324 25.469L55.322 25.467C54.888 25.75 54.427 25.943 53.965 26.015L53.963 26.017C53.973 26.107 53.978 26.201 53.978 26.298C53.978 27.146 53.637 28.929 51.891 28.929C50.577 28.929 49.856 27.93 49.856 26.653C49.856 25.97 50.184 25.514 50.5 25.135C49.81 25.55 49.021 26.19 48.285 26.965L48.282 26.976C48.363 27.606 48.426 28.162 48.426 28.651C48.426 32.381 46.795 34.203 45.923 34.203C45.379 34.203 45.088 33.482 45.088 32.748C45.088 31.452 45.736 29.968 46.645 28.618V28.618ZM68.429 27.21H68.426C68.211 27.52 68.08 27.818 68.08 28.069C68.08 28.322 68.13 28.474 68.282 28.474C68.421 28.474 68.548 28.296 68.548 28.056C68.548 27.77 68.501 27.48 68.428 27.21H68.429ZM56.267 24.154C56.8817 23.3737 57.2163 22.4094 57.217 21.416C57.217 20.885 57.178 20.581 56.9 20.581C56.187 20.581 56.259 23.221 56.267 24.154ZM53.33 25.618L53.331 25.614C53.196 25.297 52.983 25.045 52.689 25.045C52.562 25.045 52.486 25.121 52.486 25.223C52.486 25.503 52.886 25.592 53.33 25.618V25.618ZM47.388 28.023L47.385 28.021C46.408 29.305 45.682 30.798 45.682 32.216C45.682 32.684 45.682 33.38 46.327 33.38C47.124 33.38 47.68 32.19 47.68 30.534C47.68 29.764 47.546 28.888 47.388 28.023V28.023ZM42.527 27.648L42.531 27.64C42.311 27.104 41.925 26.588 41.142 26.588C40.927 26.588 40.813 26.778 40.813 27.006C40.813 27.423 41.471 27.689 42.078 27.689C42.205 27.689 42.357 27.673 42.527 27.649V27.648ZM31.697 25.512C31.578 25.537 31.46 25.552 31.341 25.552C30.999 25.552 30.797 25.412 30.797 25.184C30.797 25.084 30.911 24.957 31.037 24.957C31.311 24.957 31.537 25.197 31.699 25.507L31.697 25.512V25.512ZM25.949 27.212C26.021 27.482 26.067 27.77 26.067 28.055C26.067 28.295 25.94 28.473 25.801 28.473C25.65 28.473 25.599 28.321 25.599 28.068C25.599 27.818 25.729 27.522 25.943 27.212H25.949V27.212ZM13.786 24.149C13.778 23.213 13.708 20.581 14.419 20.581C14.697 20.581 14.735 20.885 14.735 21.416C14.7349 22.4079 14.4018 23.371 13.789 24.151L13.786 24.149ZM10.851 25.618C10.407 25.592 10.006 25.504 10.006 25.223C10.006 25.121 10.081 25.046 10.208 25.045C10.503 25.045 10.717 25.298 10.851 25.617V25.618ZM4.843 27.694C4.67 27.911 4.502 28.134 4.341 28.362H4.34C3.554 27.594 2.923 25.941 2.923 24.591C2.923 21.24 5.149 20.291 5.263 20.291C5.428 20.291 5.377 20.329 5.377 20.557C5.377 20.898 4.416 22.492 4.416 24.73C4.416 25.516 4.637 26.58 4.844 27.684L4.843 27.694V27.694ZM4.907 28.021C5.065 28.887 5.2 29.764 5.2 30.535C5.2 32.192 4.643 33.381 3.846 33.381C3.202 33.381 3.202 32.685 3.202 32.217C3.202 30.798 3.929 29.304 4.906 28.02L4.907 28.021Z" fill="#DC3B41"/>
</svg>
