<svg width="84" height="54" viewBox="0 0 84 54" fill="none" xmlns="http://www.w3.org/2000/svg">
<path d="M46.1016 33.4603C46.1931 34.123 46.513 34.1916 46.8329 34.0316C47.2443 33.7802 47.6556 33.1404 47.8156 32.3177C48.2269 30.0324 47.907 28.6384 47.8156 28.5698C47.7242 28.5698 45.9417 30.6951 46.1016 33.4603ZM47.7242 27.9299C47.5642 27.0387 47.4728 26.4673 47.4728 25.4847C47.3814 24.502 47.3128 23.4508 47.7242 22.3081C47.8842 21.4854 48.3869 20.6856 48.6154 20.3428C47.7242 20.8227 46.9015 21.3255 46.1702 23.1994C45.9188 24.0221 45.8503 27.1072 47.2214 28.6612C47.3128 28.5012 47.3814 28.4098 47.4728 28.3413C47.5642 28.1813 47.6328 28.0899 47.7242 27.9299ZM53.346 25.2333C52.8661 25.0733 52.4547 25.6446 52.7747 26.056C53.0946 26.4673 53.9173 26.3759 53.9173 26.3759C54.0087 26.2845 53.9173 25.3933 53.346 25.2333ZM74.0735 25.2333C73.5936 25.1419 73.2508 25.8046 73.6621 26.1245C74.142 26.5359 74.8962 26.216 74.8962 26.216C74.8962 26.216 74.6448 25.3933 74.0735 25.2333ZM57.848 21.5768C57.848 21.0055 57.528 20.3428 57.1167 21.1655C56.7053 21.9882 56.7967 24.502 56.7967 24.502C56.7967 24.502 57.7566 23.5193 57.848 21.5768ZM68.2689 28.8212C68.1774 29.4839 68.8402 29.3925 69.0001 28.9811C69.1601 28.6612 68.7488 27.8385 68.7488 27.8385C68.7488 27.8385 68.2689 28.1813 68.2689 28.8212ZM42.9937 27.9985C42.9937 27.9985 42.5138 27.2672 41.7596 27.0158C41.0969 26.8558 40.7769 27.5871 41.4397 27.9071C42.3538 28.3413 42.9937 27.9985 42.9937 27.9985ZM48.6154 23.8393C48.7069 24.9819 48.9354 26.6959 48.9354 26.7644C49.1868 26.513 49.6667 26.1017 50.1694 25.7132C51.472 24.8905 52.3633 24.7305 52.3633 24.7305C52.2719 24.7305 51.3806 25.5532 51.3806 27.0158C51.472 28.9811 53.1632 28.8212 53.7345 27.9985C53.9859 27.5871 53.9859 26.8558 53.9859 26.7644C53.8944 26.7644 52.7518 26.9244 52.2719 26.1931C51.8605 25.6218 52.2719 24.4791 53.5059 24.8905C54.2372 25.0505 54.4886 26.2845 54.4886 26.2845C54.6486 26.1931 54.8086 26.1245 55.0599 26.0331C55.3113 25.9417 55.4713 25.7818 55.7227 25.7132C55.7227 25.6218 55.7227 23.9307 55.7227 23.268C55.8141 22.6052 56.134 20.9827 57.2767 20.4114C58.0994 19.9314 58.8992 20.7313 58.4193 22.2167C57.9394 23.7707 56.7967 25.1419 56.7967 25.1419V27.8385C56.7967 27.8385 58.0308 25.5532 58.1908 25.3018C58.8535 24.4791 59.8133 24.6391 59.8133 25.7132C59.8133 26.7644 59.5619 27.3357 59.5619 28.2499C59.5619 28.5698 59.8133 28.5698 59.8819 28.5012C60.5446 27.61 61.0245 26.5359 61.7558 25.3933C62.4185 24.342 63.3098 24.662 63.2184 25.6446C63.2184 26.3759 63.2184 26.8558 63.2184 27.61C63.2184 27.77 63.3784 27.7014 63.3784 27.61C63.6983 27.0387 64.361 25.9874 64.7724 25.2561C65.2523 24.4334 66.235 24.7762 66.235 25.8275C66.235 26.7187 66.1435 27.29 66.075 28.2727C66.075 28.5241 66.235 28.5241 66.3264 28.3641C67.1491 27.3129 67.469 26.5588 68.1089 25.439C68.2688 25.1876 68.4288 24.8676 68.5202 24.8676C68.6116 24.7077 68.7716 24.7762 68.7716 24.8676C68.7716 24.8676 68.863 25.119 68.9316 25.279C69.0915 25.8503 69.2515 26.1703 69.5029 26.673C69.5943 26.673 70.5541 25.9417 71.2854 25.6218C72.0167 25.2104 72.1767 25.1419 73.2508 24.8905C72.9308 25.0505 72.2681 26.1931 72.2681 27.0158C72.1767 28.8897 73.6621 29.1411 74.3934 28.5698C75.0561 28.0899 75.1247 26.9473 74.9647 26.6959C74.9647 26.6959 73.6621 27.1758 73.0908 26.216C72.7709 25.5532 73.3422 24.7534 74.3248 24.9819C74.8962 25.1419 75.3075 26.0331 75.3075 26.0331C75.3075 26.0331 76.3587 25.3704 76.9301 25.0505C77.7528 24.6391 78.0727 25.0505 78.0727 25.8732C77.9813 26.6959 77.9127 27.9071 77.9127 27.9071C77.9127 27.9071 78.8954 26.1931 79.3753 25.5532C80.358 24.2506 80.9293 25.3933 80.9293 25.9646C80.9293 26.6959 80.6779 27.3586 80.7693 28.5698C80.7693 28.7298 81.0207 28.8212 81.1807 28.7298C81.4321 28.5698 81.6606 28.1584 81.6606 28.1584C81.8206 27.9985 82.0719 28.067 81.9805 28.2499C81.8891 28.5698 81.2492 29.3925 80.7465 29.7124C80.3351 29.9638 79.6038 29.8724 79.6038 29.0497C79.6038 28.7983 79.6952 26.7644 79.7638 26.2845C79.7638 26.1245 79.6038 25.9646 79.4439 26.1245C78.5526 27.3586 78.0498 28.7298 77.6385 29.4611C77.3871 29.8724 76.6558 29.8724 76.6558 29.3011C76.7472 28.067 76.7472 27.3357 76.8158 26.1245C76.8158 25.8046 76.6558 25.7132 76.4044 25.8046C75.8331 26.216 75.4218 26.4673 75.4218 26.4673C75.4218 26.6273 75.5817 28.3413 74.5991 29.2325C73.6164 30.1238 71.9024 29.8953 71.3311 28.6612C70.8512 27.61 71.2397 26.216 71.5825 25.896C71.1712 25.9874 70.9198 26.1474 70.5998 26.3759C70.1885 26.5359 69.9371 26.7873 69.7086 27.1072C69.7086 27.1072 70.3713 28.8897 69.4572 29.5525C68.4745 30.1238 67.7432 29.5525 67.7432 28.8897C67.7432 28.227 68.4745 27.4957 68.5659 27.4957C68.5659 27.4043 68.406 27.0844 68.3146 26.833C68.2231 26.673 68.1546 26.513 68.0632 26.3531C68.0632 26.4445 66.6692 28.7069 66.4406 29.0497C65.6179 30.1923 64.8866 29.621 64.8866 28.9583C64.7952 28.1356 65.0466 26.9244 65.0466 26.2617C65.0466 26.0103 64.8866 26.0103 64.7267 26.1703C63.9954 27.3129 63.8354 27.9756 62.9441 29.3468C62.6928 29.6667 61.9615 29.9181 61.9615 29.0954C62.0529 27.9528 62.0529 27.29 62.0529 26.1703C62.0529 26.0788 61.9615 25.9189 61.8929 26.0788C61.0702 27.0615 60.4989 28.6155 59.859 29.2554C59.1277 29.9867 58.465 29.5753 58.5564 28.9354C58.5564 27.7928 58.5564 27.1301 58.6478 26.0788C58.6478 25.8275 58.4879 25.7589 58.3279 25.9874C57.5966 27.1301 57.4366 27.61 56.7739 29.3239C56.5225 29.8953 55.6313 29.7353 55.6313 29.004C55.7227 27.77 55.7227 26.1474 55.7227 26.1474C55.4713 26.3074 55.3113 26.3988 55.0599 26.4673C54.9 26.5588 54.74 26.6273 54.4886 26.7187C54.4886 26.8101 54.74 28.7526 53.186 29.4154C52.0434 29.8953 50.7408 29.5753 50.3294 27.9528C50.1694 27.3815 50.3294 26.4902 50.4894 26.1474C50.1694 26.3074 50.0095 26.3988 49.6667 26.6273C49.3467 26.8787 49.1868 27.0387 48.9354 27.29C49.0954 28.1813 49.0268 30.6265 48.524 31.9292C48.1127 33.0718 47.6328 34.123 46.7187 34.7858C45.6674 35.4485 45.0047 34.3059 45.2561 33.0032C45.6674 30.9693 46.8786 29.004 46.97 29.004C46.8786 28.9126 46.3073 28.1127 45.4161 28.1127C44.4334 28.0213 43.7021 28.3641 43.7021 28.4327C43.7021 28.4327 43.6107 29.004 43.4507 29.3239C43.4507 29.4839 43.1993 29.6439 43.1993 29.3239C43.1993 29.004 43.1308 28.5012 43.1993 28.5012C43.1993 28.5012 41.1654 28.9126 40.3427 28.0213C39.7714 27.45 40.3427 26.6273 41.4854 26.7187C42.2167 26.8101 43.0394 27.45 43.0394 27.5414C43.0394 27.45 42.8794 26.9701 42.788 26.5588C42.6966 26.3988 42.628 26.1474 42.468 25.9874L43.1993 25.5761C43.3593 25.9874 43.5193 26.2388 43.6107 26.6273C43.7021 27.1072 43.7021 27.45 43.7021 27.9299C44.1134 27.8385 44.3648 27.77 44.6848 27.77C45.3475 27.6785 45.4161 27.77 45.8274 27.77C44.5934 26.1474 44.4334 24.4334 45.4161 22.5595C46.3073 21.0055 48.0213 20.0229 49.0039 20.0229C49.0954 20.0229 49.1639 20.0229 49.0954 20.1143C48.5469 21.7368 48.6154 23.0394 48.6154 23.8393ZM3.20694 33.4603C3.20694 34.123 3.61829 34.1916 3.93823 34.0316C4.34958 33.7802 4.76093 33.1404 4.9209 32.3177C5.24084 30.0324 5.01231 28.6384 4.9209 28.5698C4.82949 28.5698 3.04697 30.6951 3.20694 33.4603ZM4.82949 27.9299C4.66952 27.0387 4.57811 26.4673 4.57811 25.4847C4.4867 24.502 4.41814 23.4508 4.73808 22.3081C4.98946 21.4854 5.46937 20.6856 5.62934 20.3428C4.80664 20.8227 3.91538 21.3255 3.2755 23.1994C2.95556 24.0221 2.95556 27.1072 4.25817 28.6612C4.41814 28.5012 4.50955 28.4098 4.57811 28.3413C4.66952 28.1813 4.76093 28.0899 4.82949 27.9299ZM5.97213 27.2672C6.22351 28.1584 6.1321 30.6037 5.65219 31.9063C5.24084 33.0489 4.76093 34.1002 3.84682 34.7629C2.79559 35.4256 2.13286 34.283 2.38424 32.9804C2.79559 30.9465 4.00679 28.9811 4.0982 28.9811C1.81292 27.4272 1.56154 24.502 2.54421 22.5367C3.36691 20.9141 5.14943 20 6.1321 20C6.22351 20 6.29207 20 6.29207 20.0914C5.62934 21.6454 5.62934 23.0166 5.72075 23.8393C5.72075 24.9819 5.97213 26.6959 6.04069 26.7644C6.29207 26.513 6.77198 26.1017 7.27474 25.7132C8.57735 24.8905 9.46861 24.7305 9.46861 24.7305C9.3772 24.7305 8.48594 25.5532 8.48594 27.0158C8.48594 28.9811 10.2913 28.8212 10.8398 27.9985C11.0912 27.5871 11.0912 26.8558 11.0912 26.7644C10.9997 26.7644 9.85711 26.9244 9.3772 26.1931C8.96585 25.6218 9.3772 24.4791 10.6112 24.8905C11.3425 25.0505 11.5025 26.2845 11.5025 26.2845C11.7539 26.1931 11.9139 26.1245 12.1652 26.0331C12.4166 25.9417 12.5766 25.7818 12.828 25.7132C12.828 25.6218 12.828 23.9307 12.828 23.268C12.9194 22.6052 13.2393 20.9827 14.382 20.4114C15.2047 19.9314 15.9359 20.7313 15.5246 22.2167C15.0447 23.7707 13.902 25.1419 13.902 25.1419V27.8385C13.902 27.8385 15.1361 25.5532 15.2961 25.3018C15.9588 24.4791 16.9186 24.6391 16.9186 25.7132C16.9186 26.7644 16.6672 27.3357 16.6672 28.2499C16.6672 28.5698 16.9186 28.5698 16.9872 28.5012C17.6499 27.61 18.1298 26.5359 18.8611 25.3933C19.5238 24.342 20.4151 24.662 20.3237 25.6446C20.3237 26.3759 20.3237 26.8558 20.3237 27.61C20.3237 27.77 20.4837 27.7014 20.4837 27.61C20.8036 27.0387 21.4663 25.9874 21.8777 25.2561C22.3576 24.4334 23.3403 24.7762 23.3403 25.8275C23.3403 26.7187 23.2488 27.29 23.1803 28.2727C23.1803 28.5241 23.3403 28.5241 23.4317 28.3641C24.2544 27.3129 24.5743 26.5588 25.2142 25.439C25.3742 25.1876 25.5341 24.8676 25.6255 24.8676C25.7169 24.7077 25.8769 24.7762 25.8769 24.8676C25.8769 24.8676 25.9683 25.119 26.0369 25.279C26.1969 25.8503 26.3568 26.1703 26.6082 26.673C26.6996 26.673 27.6594 25.9417 28.4136 25.6218C29.0763 25.2104 29.2363 25.1419 30.3789 24.8905C29.9676 25.0505 29.3277 26.1931 29.3277 27.0158C29.3277 28.8897 30.7903 29.1411 31.5216 28.5698C32.1843 28.0899 32.1843 26.9473 32.0929 26.6959C32.0929 26.6959 30.7903 27.1758 30.2189 26.216C29.8076 25.5532 30.4703 24.7534 31.453 24.9819C32.0243 25.1419 32.4357 26.0331 32.4357 26.0331C32.4357 26.0331 33.4869 25.3704 33.9897 25.0505C34.8809 24.6391 35.2009 25.0505 35.2009 25.8732C35.1094 26.6959 35.0409 27.9071 35.0409 27.9071C35.0409 27.9071 36.0236 26.1931 36.5035 25.5532C37.4861 24.2506 38.0575 25.3933 38.0575 25.9646C38.0575 26.6959 37.8061 27.3586 37.8975 28.5698C37.8975 28.7298 38.1489 28.8212 38.2174 28.7298C38.4688 28.6384 38.6288 28.4098 38.6288 28.4098C38.7202 28.3184 38.9487 28.3184 38.8802 28.5012C38.7887 28.8212 38.4002 29.3925 37.8975 29.7353C37.4861 29.9867 36.7548 29.8953 36.7548 29.0726C36.7548 28.8212 36.8463 26.7873 36.9148 26.3074C36.9148 26.1474 36.7548 25.9874 36.5949 26.1474C35.7036 27.3815 35.2009 28.7526 34.8124 29.4839C34.561 29.8953 33.8297 29.8953 33.8297 29.3239C33.8297 28.0899 33.9211 27.3586 33.9211 26.1474C34.0125 25.8275 33.8297 25.7361 33.6012 25.8275C33.0298 26.2388 32.6185 26.4902 32.6185 26.4902C32.6185 26.6502 32.7785 28.3641 31.7958 29.2554C30.8131 30.1466 29.0992 29.9181 28.5278 28.6841C28.0479 27.6328 28.4364 26.2388 28.7792 25.9189C28.3679 26.0103 28.1165 26.1703 27.7965 26.3988C27.3852 26.5588 27.1338 26.8101 26.8139 27.1301C26.9053 27.1301 27.5452 28.9126 26.6539 29.5753C25.6712 30.1466 24.94 29.5753 24.94 28.9126C24.94 28.2499 25.6712 27.5186 25.7627 27.5186C25.7627 27.4272 25.6027 27.1072 25.5113 26.8558C25.4199 26.6959 25.3513 26.5359 25.2599 26.3759C25.2599 26.4673 23.7973 28.7298 23.6373 29.0726C22.8146 30.2152 22.0834 29.6439 22.0834 28.9811C21.9919 28.1584 22.2433 26.9472 22.1748 26.2845C22.1748 26.0331 22.0834 26.0331 21.9234 26.1931C21.1921 27.3357 21.0321 27.9985 20.118 29.3696C19.8666 29.6896 19.1353 29.941 19.1353 29.1183C19.2268 27.9756 19.2268 27.3129 19.2268 26.1931C19.2268 26.1017 19.1353 25.9417 19.0668 26.1017C18.2441 27.0844 17.6728 28.6384 17.0329 29.2782C16.3016 30.0095 15.6389 29.5982 15.7303 28.9583C15.7303 27.8157 15.7303 27.1529 15.8217 26.1017C15.8217 25.8503 15.6617 25.7818 15.5017 26.0103C14.7705 27.1529 14.6105 27.6328 13.8792 29.3468C13.6278 29.9181 12.828 29.7581 12.828 29.0269C12.9194 27.7928 12.9194 26.1703 12.9194 26.1703C12.668 26.3302 12.508 26.4216 12.2566 26.4902C12.0967 26.5816 11.9367 26.6502 11.6853 26.7416C11.6853 26.833 11.8453 28.7755 10.3827 29.4382C9.24008 29.9181 7.93747 29.5982 7.52612 27.9756C7.27474 27.4043 7.52612 26.513 7.68609 26.1703C7.36615 26.3302 7.20618 26.4216 6.86339 26.6502C6.45204 26.8558 6.29207 27.0387 5.97213 27.2672ZM10.4513 25.2333C9.97137 25.0733 9.56002 25.6446 9.87996 26.056C10.1999 26.4673 11.0226 26.3759 11.0226 26.3759C11.114 26.2845 11.0226 25.3933 10.4513 25.2333ZM31.1788 25.2333C30.6989 25.1419 30.3561 25.8046 30.7674 26.1245C31.2473 26.5359 32.0015 26.216 32.0015 26.216C32.0015 26.216 31.7501 25.3933 31.1788 25.2333ZM14.9533 21.5768C14.9533 21.0055 14.6333 20.3428 14.222 21.1655C13.8106 21.9882 13.902 24.502 13.902 24.502C13.902 24.502 14.8619 23.5193 14.9533 21.5768ZM25.3742 28.8212C25.2827 29.4839 25.8541 29.3925 26.0369 28.9811C26.1969 28.6612 25.8769 27.8385 25.8769 27.8385C25.8769 27.8385 25.3742 28.1813 25.3742 28.8212Z" fill="#DC3B41"/>
</svg>
