<svg width="84" height="54" viewBox="0 0 84 54" fill="none" xmlns="http://www.w3.org/2000/svg">
<title>Genentech</title>
<path d="M12.723 25.067V24.003C12.723 24.003 13.003 21 7.423 21C2.248 21 2 24.003 2 24.003V29.349C2 29.349 2.436 32.322 7.424 32.322C11.664 32.322 12.724 30.194 12.724 30.194V26.38H7.424V27.818H9.917V30.194C9.917 30.194 9.793 30.884 7.424 30.884C4.649 30.884 4.804 29.349 4.804 29.349V24.003C4.804 24.003 4.649 22.377 7.424 22.377C10.136 22.377 9.917 24.003 9.917 24.003V25.066H12.723V25.067ZM22.512 24.761V31.986H24.772V26.396C24.774 26.396 24.772 25.472 26.612 25.472C28.468 25.472 28.468 26.38 28.468 26.38V31.994H30.728V26.145C30.728 26.145 30.634 24.237 26.613 24.237C25.236 24.237 24.322 24.459 23.714 24.754L23.73 24.752L22.513 24.761H22.512ZM40.471 24.761V31.986H42.731V26.396C42.731 26.396 42.731 25.472 44.571 25.472C46.425 25.472 46.425 26.38 46.425 26.38V31.994H48.685V26.145C48.685 26.145 48.592 24.237 44.571 24.237C43.194 24.237 42.28 24.459 41.671 24.754L41.687 24.752L40.471 24.761V24.761ZM63.32 28.865H57.365C57.365 28.865 57.349 30.204 57.36 30.204C57.37 30.204 57.365 31.118 59.205 31.118C61.061 31.118 61.063 30.2 61.063 30.2L61.061 29.6H63.32V30.194C63.32 30.194 63.492 32.322 59.205 32.322C54.918 32.322 55.105 30.194 55.105 30.194V26.489C55.105 26.489 54.933 24.361 59.205 24.361C63.508 24.361 63.32 26.505 63.32 26.505V28.865V28.865ZM57.362 26.535L57.365 27.364H61.061L61.067 26.536C61.067 26.536 61.069 25.598 59.205 25.598C57.365 25.598 57.362 26.536 57.362 26.536V26.535ZM72.33 27.499V26.505C72.33 26.505 72.517 24.361 68.214 24.361C63.944 24.361 64.116 26.489 64.116 26.489V30.194C64.116 30.194 63.928 32.322 68.214 32.322C72.501 32.322 72.33 30.194 72.33 30.194V29.272H70.07L70.073 30.2C70.073 30.2 70.07 31.118 68.214 31.118C66.376 31.118 66.381 30.194 66.37 30.194C66.36 30.194 66.376 26.536 66.376 26.536C66.382 26.536 66.406 25.598 68.309 25.598C70.101 25.598 70.07 26.52 70.07 26.52V27.495L72.33 27.499V27.499ZM49.202 24.634H49.918V22.899H52.178V24.634H54.656V25.854H52.177V30.294C52.177 30.294 52.303 31.42 54.547 31.11C54.547 31.11 54.559 32.211 54.544 32.214C52.596 32.468 49.918 32.265 49.918 30.294V25.854H49.201V24.634H49.202ZM73.219 21.097C73.219 21.097 75.479 21.117 75.479 21.093C75.479 21.077 75.467 24.408 75.479 24.408C76.0847 24.2868 76.7014 24.2299 77.319 24.238C81.339 24.238 81.434 26.145 81.434 26.145V31.994H79.174V26.38C79.174 26.38 79.174 25.472 77.318 25.472C75.479 25.472 75.479 26.396 75.479 26.396V31.986H73.219V21.096V21.097ZM39.708 28.865H33.754C33.754 28.865 33.739 30.204 33.749 30.204C33.759 30.204 33.754 31.118 35.593 31.118C37.449 31.118 37.453 30.2 37.453 30.2L37.449 29.6H39.709V30.194C39.709 30.194 39.881 32.322 35.593 32.322C31.306 32.322 31.494 30.194 31.494 30.194V26.489C31.494 26.489 31.323 24.361 35.593 24.361C39.896 24.361 39.708 26.505 39.708 26.505V28.865V28.865ZM33.752 26.535L33.754 27.364H37.449L37.456 26.536C37.456 26.536 37.458 25.598 35.593 25.598C33.754 25.598 33.752 26.536 33.752 26.536V26.535ZM21.749 28.865H15.794C15.794 28.865 15.779 30.204 15.79 30.204C15.8 30.204 15.794 31.118 17.634 31.118C19.489 31.118 19.493 30.2 19.493 30.2L19.489 29.6H21.749V30.194C21.749 30.194 21.921 32.322 17.634 32.322C13.347 32.322 13.534 30.194 13.534 30.194V26.489C13.534 26.489 13.362 24.361 17.634 24.361C21.937 24.361 21.749 26.505 21.749 26.505V28.865V28.865ZM15.791 26.535L15.794 27.364H19.489L19.496 26.536C19.496 26.536 19.499 25.598 17.634 25.598C15.794 25.598 15.791 26.536 15.791 26.536V26.535Z" fill="#15588D"/>
</svg>
