<svg width="84" height="54" viewBox="0 0 84 54" fill="none" xmlns="http://www.w3.org/2000/svg">
<title>NIKE</title>
<path d="M67.0792 7.169C67.2392 7.162 67.3632 7.079 67.3632 6.86C67.3632 6.577 67.1771 6.505 66.8681 6.505H66.4231V7.682H66.7192V7.182H66.7691L67.0392 7.682H67.3811L67.0792 7.171V7.169ZM66.8892 6.979H66.7192V6.706H66.8622C66.9501 6.706 67.0502 6.717 67.0502 6.831C67.0502 6.953 66.9921 6.979 66.8892 6.979Z" fill="#1A1919"/>
<path d="M65.7532 7.093C65.7532 6.444 66.2512 6 66.8862 6C67.5212 6 68.0191 6.444 68.0191 7.093C68.0191 7.739 67.5192 8.183 66.8862 8.183C66.2532 8.183 65.7532 7.742 65.7532 7.093ZM66.0972 7.093C66.0972 7.541 66.4332 7.872 66.8862 7.872C66.9896 7.87469 67.0926 7.8555 67.1888 7.81751C67.2851 7.77952 67.3727 7.72251 67.4465 7.64988C67.5202 7.57726 67.5786 7.49052 67.618 7.39483C67.6575 7.29915 67.6773 7.19649 67.6762 7.093C67.6762 6.651 67.3362 6.312 66.8862 6.312C66.4312 6.312 66.0972 6.646 66.0972 7.093Z" fill="#1A1919"/>
<path d="M15.5891 32.73C15.7491 32.722 15.8731 32.64 15.8731 32.42C15.8731 32.137 15.6872 32.066 15.3781 32.066H14.9331V33.241H15.2291V32.741H15.2792L15.5491 33.241H15.8911L15.5891 32.73ZM15.3991 32.54H15.2291V32.267H15.3721C15.4601 32.267 15.5602 32.277 15.5602 32.392C15.5602 32.513 15.5021 32.54 15.3991 32.54Z" fill="#1A1919"/>
<path d="M15.3962 31.56C14.7612 31.56 14.2632 32.005 14.2632 32.654C14.2632 33.302 14.7632 33.744 15.3962 33.744C16.0292 33.744 16.5292 33.3 16.5292 32.654C16.5292 32.005 16.0312 31.56 15.3962 31.56ZM15.3962 33.432C14.9432 33.432 14.6072 33.102 14.6072 32.654C14.6072 32.206 14.9412 31.873 15.3962 31.873C15.8462 31.873 16.1862 32.212 16.1862 32.653C16.1874 32.7566 16.1677 32.8593 16.1283 32.9551C16.0889 33.0509 16.0306 33.1378 15.9568 33.2105C15.8831 33.2833 15.7954 33.3404 15.6991 33.3784C15.6027 33.4165 15.4997 33.4347 15.3962 33.432Z" fill="#1A1919"/>
<path d="M20.9062 27.736H26.4222L34.5492 6.066H29.4262L25.7761 15.784L26.4062 6.066H20.9562L12.8292 27.736H17.9512L21.5332 18.148L20.9062 27.736Z" fill="#1A1919"/>
<path d="M27.0872 27.736L35.2142 6.066H40.3362L32.2092 27.736H27.0872Z" fill="#1A1919"/>
<path d="M4.29215 45.006C-1.67185 39.856 5.08015 28.672 12.2382 20.266C6.06515 32.611 14.6021 37.192 22.0882 35.091C22.0882 35.091 35.3253 31.5035 49.2878 27.7201L41.9212 27.736L41.6852 18.674L38.2432 27.736H33.1211L41.1822 6.066H46.3702L43.8932 12.566L49.2602 6.066H64.8872L63.5112 9.677H58.3242L56.6362 14.241H61.5612L60.0462 18.28H55.1212L53.1572 23.533H59.1332L58.5292 25.216C70.6945 21.9198 81.2414 19.0628 81.3531 19.035C82.0102 18.871 82.1092 19.199 81.5832 19.462C81.5832 19.462 27.1452 43.102 22.2192 45.072L22.0864 45.1251C17.165 47.0942 10.0195 49.9533 4.29215 45.006ZM46.6732 14.997L47.0012 26.291L54.4172 6.494L46.6732 14.997Z" fill="#1A1919"/>
</svg>
