<svg width="84" height="54" viewBox="0 0 84 54" fill="none" xmlns="http://www.w3.org/2000/svg">
<title>NOVARTIS</title>
<path d="M21.125 31.861C21.142 32.547 21.257 32.776 21.433 32.837C21.582 32.89 21.749 32.898 21.89 32.898C21.986 32.898 22.04 32.916 22.04 32.968C22.04 33.039 21.96 33.058 21.837 33.058C21.266 33.058 20.914 33.03 20.747 33.03C20.667 33.03 20.255 33.057 19.797 33.057C19.683 33.057 19.605 33.047 19.605 32.969C19.605 32.916 19.657 32.899 19.745 32.899C19.859 32.899 20.017 32.889 20.141 32.854C20.369 32.784 20.404 32.529 20.413 31.764L20.492 26.561C20.492 26.385 20.518 26.261 20.606 26.261C20.703 26.261 20.782 26.376 20.931 26.534C21.823 27.4903 22.7315 28.4311 23.656 29.356C24.254 29.954 25.441 31.22 25.591 31.361H25.635L25.547 27.413C25.537 26.878 25.458 26.71 25.247 26.623C25.116 26.57 24.905 26.57 24.781 26.57C24.676 26.57 24.641 26.543 24.641 26.49C24.641 26.42 24.738 26.411 24.87 26.411C25.327 26.411 25.749 26.438 25.934 26.438C26.03 26.438 26.364 26.411 26.795 26.411C26.909 26.411 26.997 26.421 26.997 26.491C26.997 26.543 26.944 26.57 26.839 26.57C26.751 26.57 26.681 26.57 26.575 26.596C26.329 26.666 26.258 26.851 26.25 27.343L26.153 32.89C26.153 33.083 26.118 33.162 26.039 33.162C25.942 33.162 25.836 33.065 25.739 32.969C25.186 32.441 24.061 31.291 23.147 30.385C22.188 29.435 21.213 28.336 21.055 28.169H21.028L21.125 31.861ZM29.754 29.734C29.754 28.231 30.748 26.288 33.385 26.288C35.574 26.288 36.936 27.562 36.936 29.576C36.936 31.59 35.53 33.18 33.297 33.18C30.775 33.18 29.754 31.29 29.754 29.734V29.734ZM35.706 29.901C35.706 27.933 34.572 26.71 33.13 26.71C32.12 26.71 30.967 27.273 30.967 29.461C30.967 31.291 31.979 32.74 33.667 32.74C34.282 32.74 35.706 32.441 35.706 29.901V29.901ZM39.808 27.273C39.606 26.79 39.456 26.693 39.14 26.605C39.009 26.57 38.868 26.57 38.797 26.57C38.717 26.57 38.692 26.543 38.692 26.49C38.692 26.42 38.788 26.411 38.921 26.411C39.387 26.411 39.887 26.438 40.195 26.438C40.415 26.438 40.836 26.411 41.275 26.411C41.381 26.411 41.478 26.429 41.478 26.491C41.478 26.552 41.426 26.57 41.346 26.57C41.206 26.57 41.074 26.578 41.004 26.631C40.942 26.675 40.916 26.737 40.916 26.816C40.916 26.93 40.995 27.176 41.118 27.492L42.63 31.483H42.665C43.043 30.517 44.185 27.686 44.396 27.106C44.44 26.991 44.476 26.86 44.476 26.78C44.4774 26.7436 44.4671 26.7078 44.4465 26.6777C44.426 26.6476 44.3964 26.625 44.362 26.613C44.2475 26.5811 44.1288 26.5666 44.01 26.57C43.931 26.57 43.86 26.56 43.86 26.499C43.86 26.429 43.94 26.411 44.107 26.411C44.546 26.411 44.915 26.438 45.03 26.438C45.179 26.438 45.592 26.411 45.856 26.411C45.971 26.411 46.041 26.429 46.041 26.491C46.041 26.552 45.988 26.57 45.9 26.57C45.812 26.57 45.628 26.57 45.469 26.675C45.354 26.754 45.223 26.904 44.986 27.467C44.643 28.292 44.406 28.767 43.931 29.848L42.761 32.528C42.533 33.039 42.48 33.18 42.358 33.18C42.244 33.18 42.19 33.057 42.023 32.643L39.808 27.273V27.273ZM49.09 30.762C49.045 30.762 49.027 30.78 49.01 30.832L48.535 32.089C48.447 32.309 48.403 32.521 48.403 32.626C48.403 32.784 48.483 32.898 48.755 32.898H48.887C48.993 32.898 49.019 32.916 49.019 32.968C49.019 33.039 48.966 33.058 48.869 33.058C48.588 33.058 48.209 33.03 47.938 33.03C47.84 33.03 47.358 33.057 46.901 33.057C46.786 33.057 46.734 33.039 46.734 32.969C46.734 32.916 46.768 32.899 46.838 32.899L47.112 32.881C47.516 32.828 47.682 32.529 47.858 32.089L50.065 26.569C50.17 26.315 50.223 26.218 50.311 26.218C50.39 26.218 50.443 26.298 50.531 26.499C50.741 26.982 52.149 30.569 52.711 31.905C53.044 32.696 53.299 32.819 53.484 32.863C53.616 32.89 53.748 32.898 53.854 32.898C53.924 32.898 53.968 32.907 53.968 32.968C53.968 33.039 53.888 33.058 53.564 33.058C53.247 33.058 52.605 33.058 51.902 33.039C51.744 33.03 51.638 33.03 51.638 32.969C51.638 32.916 51.673 32.899 51.761 32.889C51.823 32.872 51.885 32.793 51.841 32.687L51.137 30.824C51.12 30.78 51.094 30.762 51.05 30.762H49.09V30.762ZM50.883 30.323C50.926 30.323 50.935 30.297 50.926 30.27L50.136 28.099C50.126 28.064 50.118 28.02 50.091 28.02C50.065 28.02 50.047 28.064 50.038 28.099L49.23 30.261C49.22 30.297 49.23 30.323 49.265 30.323H50.883ZM56.648 28.96C56.648 27.624 56.648 27.378 56.631 27.097C56.613 26.798 56.543 26.657 56.253 26.597C56.1398 26.577 56.0249 26.568 55.91 26.57C55.813 26.57 55.76 26.552 55.76 26.49C55.76 26.429 55.822 26.411 55.954 26.411C56.42 26.411 56.974 26.438 57.158 26.438C57.457 26.438 58.124 26.411 58.398 26.411C58.951 26.411 59.54 26.464 60.015 26.79C60.261 26.956 60.613 27.404 60.613 27.994C60.613 28.644 60.34 29.242 59.452 29.963C60.234 30.947 60.841 31.73 61.359 32.274C61.852 32.784 62.212 32.846 62.344 32.872C62.44 32.89 62.52 32.898 62.591 32.898C62.661 32.898 62.696 32.925 62.696 32.968C62.696 33.039 62.634 33.058 62.529 33.058H61.693C61.202 33.058 60.981 33.013 60.753 32.89C60.375 32.687 60.041 32.274 59.549 31.597C59.197 31.114 58.793 30.517 58.679 30.385C58.634 30.332 58.582 30.323 58.52 30.323L57.755 30.305C57.711 30.305 57.685 30.323 57.685 30.376V30.499C57.685 31.317 57.685 32.011 57.729 32.38C57.755 32.635 57.809 32.828 58.072 32.863C58.203 32.881 58.398 32.898 58.502 32.898C58.572 32.898 58.609 32.925 58.609 32.968C58.609 33.03 58.546 33.058 58.432 33.058C57.922 33.058 57.272 33.03 57.141 33.03C56.973 33.03 56.42 33.057 56.068 33.057C55.954 33.057 55.892 33.03 55.892 32.969C55.892 32.925 55.928 32.899 56.032 32.899C56.165 32.899 56.27 32.881 56.35 32.863C56.525 32.828 56.569 32.635 56.604 32.38C56.648 32.011 56.648 31.317 56.648 30.507V28.961V28.96ZM57.685 29.655C57.685 29.752 57.704 29.787 57.765 29.813C57.949 29.874 58.213 29.901 58.432 29.901C58.784 29.901 58.898 29.866 59.057 29.751C59.32 29.558 59.575 29.154 59.575 28.433C59.575 27.185 58.749 26.824 58.231 26.824C58.011 26.824 57.852 26.834 57.764 26.86C57.704 26.878 57.684 26.912 57.684 26.982V29.655H57.685ZM65.827 26.904L64.517 26.939C64.007 26.956 63.797 27.001 63.665 27.193C63.5983 27.2867 63.5476 27.3907 63.515 27.501C63.498 27.572 63.472 27.608 63.419 27.608C63.357 27.608 63.339 27.562 63.339 27.467C63.339 27.326 63.507 26.526 63.524 26.455C63.551 26.341 63.577 26.288 63.629 26.288C63.7 26.288 63.788 26.376 64.008 26.394C64.263 26.421 64.597 26.438 64.887 26.438H68.368C68.93 26.438 69.141 26.35 69.212 26.35C69.274 26.35 69.282 26.402 69.282 26.534C69.282 26.719 69.255 27.326 69.255 27.554C69.247 27.642 69.23 27.694 69.177 27.694C69.107 27.694 69.089 27.651 69.08 27.519L69.071 27.422C69.054 27.193 68.816 26.948 68.034 26.93L66.926 26.904V30.507C66.926 31.317 66.926 32.011 66.97 32.388C66.996 32.635 67.05 32.828 67.313 32.863C67.436 32.881 67.629 32.898 67.761 32.898C67.858 32.898 67.901 32.925 67.901 32.968C67.901 33.03 67.831 33.058 67.735 33.058C67.155 33.058 66.601 33.03 66.355 33.03C66.152 33.03 65.599 33.057 65.247 33.057C65.133 33.057 65.072 33.03 65.072 32.969C65.072 32.925 65.106 32.899 65.212 32.899C65.344 32.899 65.448 32.881 65.528 32.863C65.705 32.828 65.758 32.635 65.783 32.38C65.827 32.011 65.827 31.317 65.827 30.507V26.904V26.904ZM72.656 28.96C72.656 27.624 72.656 27.378 72.639 27.097C72.621 26.798 72.534 26.649 72.339 26.605C72.2356 26.58 72.1294 26.5682 72.023 26.57C71.936 26.57 71.883 26.552 71.883 26.482C71.883 26.429 71.953 26.412 72.094 26.412C72.427 26.412 72.982 26.438 73.237 26.438C73.457 26.438 73.975 26.411 74.31 26.411C74.424 26.411 74.494 26.429 74.494 26.481C74.494 26.552 74.441 26.57 74.354 26.57C74.265 26.57 74.195 26.578 74.09 26.596C73.852 26.64 73.782 26.79 73.764 27.096C73.747 27.378 73.747 27.624 73.747 28.961V30.507C73.747 31.361 73.747 32.055 73.782 32.432C73.808 32.67 73.87 32.828 74.134 32.863C74.257 32.881 74.45 32.898 74.582 32.898C74.679 32.898 74.722 32.925 74.722 32.968C74.722 33.03 74.652 33.058 74.555 33.058C73.975 33.058 73.421 33.03 73.185 33.03C72.982 33.03 72.427 33.057 72.076 33.057C71.962 33.057 71.901 33.03 71.901 32.969C71.901 32.925 71.936 32.899 72.041 32.899C72.173 32.899 72.279 32.881 72.357 32.863C72.534 32.828 72.587 32.679 72.612 32.424C72.656 32.054 72.656 31.361 72.656 30.507V28.961V28.96ZM77.903 32.951C77.763 32.89 77.736 32.846 77.736 32.652C77.736 32.169 77.771 31.642 77.78 31.502C77.79 31.369 77.815 31.272 77.886 31.272C77.966 31.272 77.974 31.352 77.974 31.422C77.974 31.536 78.009 31.721 78.053 31.871C78.246 32.521 78.765 32.758 79.31 32.758C80.1 32.758 80.488 32.221 80.488 31.755C80.488 31.325 80.355 30.912 79.626 30.349L79.222 30.033C78.255 29.277 77.922 28.661 77.922 27.95C77.922 26.982 78.73 26.288 79.952 26.288C80.522 26.288 80.892 26.376 81.12 26.438C81.2 26.455 81.243 26.482 81.243 26.543C81.243 26.657 81.209 26.913 81.209 27.598C81.209 27.792 81.182 27.861 81.111 27.861C81.05 27.861 81.023 27.809 81.023 27.703C81.023 27.624 80.98 27.352 80.795 27.123C80.663 26.956 80.408 26.693 79.838 26.693C79.187 26.693 78.792 27.071 78.792 27.598C78.792 28.003 78.994 28.31 79.723 28.864L79.969 29.048C81.023 29.866 81.41 30.455 81.41 31.291C81.4153 31.5952 81.342 31.8956 81.1973 32.1633C81.0526 32.4309 80.8414 32.6568 80.584 32.819C80.144 33.1 79.654 33.179 79.187 33.179C78.677 33.179 78.281 33.119 77.903 32.951Z" fill="#005F77"/>
<path d="M7.646 33.64C2.769 33.267 1.286 30.462 2.92 27.304C3.8 25.604 5.144 23.774 3.542 22.084C3.499 22.028 3.535 21.993 3.602 22.024C7.25 23.478 5.352 26.414 4.729 27.631C3.501 30.028 4.284 32.94 7.646 33.566C7.72 33.583 7.715 33.645 7.646 33.639" fill="#C96E3D"/>
<path d="M8.297 30.964L9.123 20.769L7.189 20.766L8.229 30.964C8.234 31.031 8.293 31.029 8.297 30.964Z" fill="#005F77"/>
<path d="M10.505 25.832C11.71 26.78 13.674 32.047 8.879 33.566C8.801 33.586 8.807 33.645 8.88 33.637C16.508 32.684 13.886 27.21 10.57 25.767C10.481 25.725 10.44 25.78 10.505 25.832Z" fill="#E7AC38"/>
</svg>
